<?xml version="1.0" standalone="no"?>
<!DOCTYPE svg PUBLIC "-//W3C//DTD SVG 1.1//EN" "http://www.w3.org/Graphics/SVG/1.1/DTD/svg11.dtd" >
<svg>
<font id="Giga" horiz-adv-x="27" >
<font-face units-per-em="100" ascent="80" descent="-20" />
<glyph unicode=" " horiz-adv-x="27" d="" />
<glyph unicode="*" horiz-adv-x="15.454836236934053" d="M7.72742 71.83972 C7.88127 71.83972 8.05667 71.83212 8.2526 71.81716 C8.44878 71.80069 8.60289 71.78244 8.71594 71.76292 C8.88652 71.74771 8.88652 71.74771 8.88652 71.74771 C8.98917 71.72668 9.07991 71.67218 9.15671 71.58473 C9.23351 71.49729 9.2728 71.40199 9.2728 71.29959 C9.2728 67.83724 9.2728 67.83724 9.2728 67.83724 C10.08685 68.6512 11.71494 70.27913 11.71495 70.27913 C11.78744 70.3501 11.87944 70.39243 11.99274 70.40282 C12.10579 70.41195 12.20413 70.38178 12.28702 70.30929 C13.92466 68.6719 13.92466 68.6719 13.92466 68.6719 C13.9969 68.58877 14.02706 68.49067 14.01819 68.37763 C14.00755 68.26433 13.96522 68.17232 13.8945 68.09983 C11.45235 65.65794 11.45235 65.65794 11.45235 65.65794 C12.60647 65.65794 14.9147 65.65794 14.9147 65.65794 C15.0171 65.65794 15.11215 65.61865 15.19985 65.54185 C15.28755 65.46505 15.34179 65.37431 15.36308 65.27166 C15.42493 64.84913 15.45484 64.46259 15.45484 64.11256 C15.45484 63.9587 15.44749 63.78204 15.43228 63.58738 C15.4158 63.39145 15.39755 63.23734 15.37804 63.12404 C15.36283 62.95346 15.36283 62.95345 15.36283 62.95346 C15.34154 62.8508 15.2873 62.76006 15.1996 62.68352 C15.1119 62.60621 15.01685 62.56717 14.91445 62.56717 C11.4521 62.56717 11.4521 62.56717 11.4521 62.56717 C12.26615 61.75313 13.89424 60.12503 13.89425 60.12503 C13.96496 60.05279 14.00729 59.96078 14.01794 59.84723 C14.02681 59.73393 13.99665 59.63584 13.92441 59.55321 C12.28676 57.91557 12.28676 57.91556 12.28676 57.91557 C12.20388 57.84282 12.10554 57.81114 11.99249 57.82204 C11.87944 57.83243 11.78718 57.87298 11.71469 57.94573 C9.27255 60.38737 9.27254 60.38736 9.27255 60.38737 C9.27255 59.23342 9.27254 56.92553 9.27255 56.92553 C9.27255 56.82262 9.23351 56.72757 9.15646 56.63987 C9.07941 56.55268 8.98892 56.49818 8.88626 56.47689 C8.46374 56.41505 8.07745 56.38489 7.72716 56.38489 C7.57356 56.38489 7.39664 56.39224 7.20224 56.4077 C7.00605 56.42443 6.85195 56.4409 6.73865 56.46219 C6.56806 56.47715 6.56806 56.47714 6.56806 56.47715 C6.46541 56.49844 6.37492 56.55293 6.29787 56.64013 C6.22082 56.72782 6.18178 56.82287 6.18178 56.92578 C6.18178 60.38686 6.18178 60.38686 6.18178 60.38686 C5.36782 59.57298 3.73989 57.94522 3.73989 57.94522 C3.6674 57.87248 3.57539 57.83192 3.46209 57.82153 C3.34905 57.81063 3.25095 57.84231 3.16782 57.91506 C1.53043 59.5527 1.53043 59.5527 1.53043 59.5527 C1.45794 59.63533 1.42625 59.73342 1.4369 59.84672 C1.44754 59.96002 1.4881 60.05228 1.56059 60.12452 C4.00248 62.56667 4.00248 62.56666 4.00248 62.56667 C2.84845 62.56667 0.54039 62.56666 0.54039 62.56667 C0.43774 62.56667 0.34269 62.6057 0.25524 62.68301 C0.16779 62.75981 0.1133 62.8503 0.09226 62.95295 C0.03016 63.37548 -0 63.76201 -0 64.1123 C-0 64.26616 0.0076 64.4413 0.02256 64.63748 C0.03903 64.83367 0.05576 64.98752 0.0768 65.10082 C0.09201 65.2714 0.09201 65.2714 0.09201 65.2714 C0.11305 65.37406 0.16754 65.46454 0.25499 65.5416 C0.34243 65.61865 0.43774 65.65769 0.54014 65.65769 C4.00248 65.65769 4.00248 65.65768 4.00248 65.65769 C3.18852 66.47165 1.56059 68.09957 1.56059 68.09958 C1.4881 68.17207 1.44729 68.26433 1.4369 68.37738 C1.42625 68.49042 1.45794 68.58851 1.53043 68.67165 C3.16782 70.30904 3.16782 70.30904 3.16782 70.30904 C3.25095 70.38153 3.34905 70.41169 3.46209 70.40257 C3.57539 70.39192 3.6674 70.34985 3.73989 70.27888 C6.18178 67.83699 6.18178 67.83698 6.18178 67.83699 C6.18178 68.9911 6.18178 71.29933 6.18178 71.29933 C6.18178 71.40199 6.22107 71.49704 6.29787 71.58448 C6.37467 71.67193 6.46541 71.72642 6.56806 71.74746 C6.9911 71.80956 7.37738 71.83972 7.72742 71.83972 z" />
<glyph unicode="A" horiz-adv-x="56" d="" />
<glyph unicode="A" horiz-adv-x="56" d="" />
<glyph unicode="" horiz-adv-x="648.25094233502773" d="M54.33039 66.61913 C46.14781 66.61913 29.78261 66.61911 29.78264 66.61913 C29.78264 44.75563 29.78261 1.0286 29.78264 1.02862 C28.08732 1.02862 24.69666 1.0286 24.69668 1.02862 C24.69668 22.89213 24.69666 66.61911 24.69668 66.61913 C16.46446 66.61913 -0.00001 66.61911 0.00001 66.61913 C0.00001 68.05175 -0.00001 70.91697 0.00001 70.91699 C18.11014 70.91699 54.33037 70.91697 54.33039 70.91699 C54.33039 69.48437 54.33037 66.61911 54.33039 66.61913 zM117.05719 70.91699 C117.05719 47.62087 117.05716 1.0286 117.05719 1.02862 C115.3611 1.02862 111.96892 1.0286 111.96894 1.02862 C111.96894 12.191 111.96892 34.51573 111.96894 34.51575 C97.38232 34.51575 68.20907 34.51573 68.2091 34.51575 C68.2091 23.35337 68.20907 1.0286 68.2091 1.02862 C66.51301 1.02862 63.12083 1.0286 63.12085 1.02862 C63.12085 24.32475 63.12083 70.91697 63.12085 70.91699 C64.81693 70.91699 68.20907 70.91697 68.2091 70.91699 C68.2091 60.05092 68.20907 38.31874 68.2091 38.31876 C82.79571 38.31876 111.96892 38.31874 111.96894 38.31876 C111.96894 49.18484 111.96892 70.91697 111.96894 70.91699 C113.66502 70.91699 117.05716 70.91697 117.05719 70.91699 zM170.29936 5.22568 C170.26652 3.82666 170.20082 1.0286 170.20085 1.02862 C156.23967 1.02862 128.31729 1.0286 128.31731 1.02862 C128.31731 24.32475 128.31729 70.91697 128.31731 70.91699 C142.27849 70.91699 170.20082 70.91697 170.20085 70.91699 C170.20085 69.51721 170.20082 66.71762 170.20085 66.71764 C157.93499 66.71764 133.40324 66.71762 133.40327 66.71764 C133.40327 57.30022 133.40324 38.46536 133.40327 38.46538 C143.61107 38.46538 164.02666 38.46536 164.02668 38.46538 C164.02668 37.0992 164.02666 34.36681 164.02668 34.36684 C153.81887 34.36684 133.40324 34.36681 133.40327 34.36684 C133.40327 24.65236 133.40324 5.22337 133.40327 5.22339 C145.70196 5.22339 170.29933 5.22337 170.29936 5.22339 C170.29936 5.22416 170.29933 5.22566 170.29936 5.22568 zM230.91158 14.07112 C230.91158 9.71828 230.91156 1.01256 230.91158 1.01259 C216.75796 1.01259 188.4507 1.01256 188.45072 1.01259 C188.45072 24.50039 188.4507 71.47597 188.45072 71.47599 C193.89942 71.47599 204.79678 71.47597 204.7968 71.47599 C204.7968 52.34103 204.79678 14.0711 204.7968 14.07112 C213.50173 14.07112 230.91156 14.0711 230.91158 14.07112 zM301.45517 36.27063 C301.45517 31.17322 300.57773 26.43549 298.82055 22.05058 C297.06109 17.66566 294.58684 13.85348 291.39552 10.61176 C288.20419 7.37232 284.35994 4.83393 279.86048 2.99657 C275.3633 1.15692 270.37356 0.24053 264.89127 0.24053 C259.40898 0.24053 254.41237 1.15692 249.89915 2.99657 C245.38365 4.83393 241.52336 7.37232 238.316 10.61176 C235.10635 13.85348 232.62523 17.66566 230.86806 22.05058 C229.11088 26.43549 228.23344 31.17322 228.23344 36.27063 C228.23344 41.36346 229.11088 46.10119 230.86806 50.4884 C232.62523 54.87332 235.10864 58.67633 238.316 61.89973 C241.52336 65.12313 245.38365 67.65465 249.89915 69.49201 C254.41466 71.33166 259.41127 72.25034 264.89356 72.25034 C270.37585 72.25034 275.3633 71.32249 279.86277 69.4691 C284.36223 67.6157 288.20648 65.07731 291.39781 61.85162 C294.58913 58.62593 297.06338 54.82292 298.82284 50.438 C300.57773 46.05308 301.45517 41.33139 301.45517 36.27063 zM284.72192 36.27063 C284.72192 39.75291 284.2683 42.88696 283.36795 45.67278 C282.46302 48.46318 281.16633 50.82517 279.4733 52.75875 C277.78027 54.69233 275.70694 56.17688 273.26019 57.20782 C270.80885 58.24105 268.01845 58.75652 264.89356 58.75652 C261.73431 58.75652 258.921 58.24105 256.45362 57.20782 C253.98625 56.17688 251.90834 54.69233 250.21531 52.75875 C248.52228 50.82517 247.2233 48.46318 246.32295 45.67278 C245.41801 42.88467 244.96898 39.75062 244.96898 36.27063 C244.96898 32.75399 245.4203 29.60391 246.32295 26.8135 C247.22559 24.02539 248.52228 21.6634 250.21531 19.72982 C251.90834 17.79166 253.98625 16.31857 256.45362 15.30367 C258.921 14.28877 261.73202 13.77788 264.89356 13.77788 C268.02074 13.77788 270.81114 14.28877 273.26019 15.30367 C275.70924 16.31627 277.78256 17.79166 279.4733 19.72982 C281.16633 21.6634 282.46302 24.02539 283.36795 26.8135 C284.2683 29.60391 284.72192 32.75399 284.72192 36.27063 zM366.53708 71.47599 C357.12272 47.98819 338.29397 1.01256 338.29399 1.01259 C333.36076 1.01259 323.49429 1.01256 323.49431 1.01259 C314.07919 24.50039 295.24891 71.47597 295.24893 71.47599 C299.63385 71.47599 308.40366 71.47597 308.40369 71.47599 C309.8218 71.47599 310.96728 71.1438 311.83785 70.484 C312.71071 69.8242 313.36822 68.97654 313.81954 67.9456 C327.45998 30.22247 327.45996 30.22245 327.45998 30.22247 C328.10146 28.57984 328.73376 26.78143 329.34545 24.82952 C329.95714 22.87762 330.53676 20.83865 331.08659 18.71034 C331.53791 20.83865 332.04422 22.87762 332.61009 24.82952 C333.17138 26.78143 333.77848 28.57984 334.42225 30.22247 C347.96418 67.9456 347.96415 67.94558 347.96418 67.9456 C348.31699 68.84825 348.95617 69.66383 349.87485 70.38778 C350.79353 71.11172 351.92756 71.47599 353.28381 71.47599 C366.53708 71.47599 366.53706 71.47597 366.53708 71.47599 zM385.6392 58.90314 C385.6392 53.42161 385.63918 42.45852 385.6392 42.45855 C393.02224 42.45855 407.78829 42.45852 407.78831 42.45855 C407.78831 38.42873 407.78829 30.36907 407.78831 30.36909 C400.40527 30.36909 385.63918 30.36907 385.6392 30.36909 C385.6392 24.7753 385.63918 13.58771 385.6392 13.58773 C395.27884 13.58773 414.55811 13.58771 414.55813 13.58773 C414.55813 9.39678 414.55811 1.01485 414.55813 1.01488 C399.43696 1.01488 369.19459 1.01485 369.19461 1.01488 C369.19461 24.50191 369.19459 71.47597 369.19461 71.47599 C384.31578 71.47599 414.55811 71.47597 414.55813 71.47599 C414.55813 67.28504 414.55811 58.90312 414.55813 58.90314 C404.91849 58.90314 385.63918 58.90312 385.6392 58.90314 zM482.85198 12.7836 C483.18188 12.7836 483.46138 12.66676 483.69048 12.43995 C485.6653 10.31393 485.66527 10.31391 485.6653 10.31393 C484.21511 8.76523 482.6458 7.3769 480.94819 6.14207 C479.25058 4.90724 477.39031 3.85339 475.36509 2.98053 C473.33987 2.10767 471.11763 1.43183 468.69836 0.95531 C466.2791 0.47879 463.61928 0.23824 460.72349 0.23824 C455.88267 0.23824 451.44506 1.0859 447.41066 2.78122 C443.37626 4.47654 439.91231 6.87976 437.01423 9.9909 C434.11615 13.10204 431.86871 16.86382 430.27419 21.27623 C428.67739 25.68864 427.87784 30.59361 427.87784 35.99572 C427.87784 41.29473 428.7003 46.13785 430.3475 50.51589 C431.99471 54.89623 434.29943 58.65801 437.26165 61.80351 C440.22617 64.94672 443.78405 67.38431 447.93071 69.11171 C452.07966 70.84139 456.65702 71.70509 461.6605 71.70509 C466.43488 71.70509 470.66631 70.9651 474.35477 69.48284 C478.04094 68.00059 481.39951 65.90893 484.42817 63.21017 C482.8978 60.98792 482.89778 60.9879 482.8978 60.98792 C482.63434 60.59388 482.22197 60.39685 481.66297 60.39685 C481.26663 60.39685 480.62516 60.75883 479.73626 61.48277 C478.84736 62.20672 477.61253 63.00627 476.03176 63.87684 C474.45328 64.7497 472.48305 65.54696 470.13022 66.27319 C467.77739 66.99714 464.95262 67.35911 461.6605 67.35911 C457.44511 67.35911 453.58712 66.63517 450.07735 65.18498 C446.57216 63.73709 443.55724 61.66147 441.03947 58.9627 C438.5194 56.26165 436.55374 52.96952 435.13792 49.08404 C433.7221 45.19855 433.01419 40.83654 433.01419 35.99572 C433.01419 31.05638 433.73127 26.64397 435.16313 22.76078 C436.59498 18.87529 438.56293 15.59004 441.06467 12.90502 C443.5687 10.22229 446.52405 8.165 449.93073 6.73314 C453.3374 5.30128 457.01899 4.58421 460.96863 4.58421 C463.47037 4.58421 465.70177 4.74916 467.66055 5.07906 C469.61933 5.40896 471.42462 5.90152 473.06954 6.56132 C474.71674 7.21883 476.24711 8.02525 477.66293 8.98058 C479.07646 9.93592 480.47854 11.05391 481.85999 12.33915 C482.02494 12.47202 482.18989 12.57741 482.35484 12.66218 C482.51979 12.74694 482.68703 12.7836 482.85198 12.7836 zM532.1239 5.32649 C532.1239 3.89386 532.12388 1.0286 532.1239 1.02862 C519.39756 1.02862 493.94484 1.0286 493.94487 1.02862 C493.94487 24.32475 493.94484 70.91697 493.94487 70.91699 C495.64095 70.91699 499.03309 70.91697 499.03311 70.91699 C499.03311 49.05349 499.03309 5.32646 499.03311 5.32649 C510.06338 5.32649 532.12388 5.32646 532.1239 5.32649 zM563.33838 4.63461 C566.69924 4.63461 569.7027 5.21881 572.35336 6.38721 C575.00401 7.55789 577.25145 9.1799 579.09568 11.25323 C580.93992 13.32656 582.34657 15.77331 583.31794 18.58663 C584.28932 21.39994 584.77729 24.44006 584.77729 27.70011 C584.77729 70.91699 584.77727 70.91697 584.77729 70.91699 C586.45581 70.91699 589.81282 70.91697 589.81285 70.91699 C589.81285 56.51137 589.81282 27.70009 589.81285 27.70011 C589.81285 23.8467 589.20345 20.24987 587.98694 16.90964 C586.76815 13.56711 585.01326 10.65299 582.72458 8.16729 C580.4359 5.68159 577.65466 3.72968 574.37857 2.31386 C571.10019 0.89804 567.42089 0.19013 563.33838 0.19013 C559.25587 0.19013 555.57657 0.89804 552.30048 2.31386 C549.0244 3.72968 546.24087 5.68159 543.95448 8.16729 C541.66351 10.65299 539.91091 13.56711 538.69212 16.90964 C537.47561 20.24987 536.86621 23.8467 536.86621 27.70011 C536.86621 70.91699 536.86619 70.91697 536.86621 70.91699 C538.56153 70.91699 541.95214 70.91697 541.95217 70.91699 C541.95217 56.5274 541.95214 27.7482 541.95217 27.74822 C541.95217 24.48817 542.43785 21.45263 543.41152 18.63474 C544.38289 15.81913 545.78038 13.37467 547.60858 11.30134 C549.43677 9.22801 551.67505 7.59684 554.32799 6.41012 C556.97636 5.22568 559.97982 4.63461 563.33838 4.63461 zM622.12471 70.91699 C626.10871 70.91699 629.56578 70.52295 632.49593 69.73027 C635.42609 68.93988 637.84764 67.77836 639.75602 66.24799 C641.66669 64.71762 643.08251 62.84819 644.00348 60.64199 C644.92445 58.43578 645.38723 55.93404 645.38723 53.13447 C645.38723 51.29024 645.0642 49.51016 644.42273 47.7988 C643.78126 46.08745 642.858 44.50438 641.65753 43.05878 C640.45706 41.6086 638.9748 40.34856 637.21304 39.28097 C635.45129 38.21109 633.43752 37.3955 631.16259 36.8365 C636.66092 36.04612 640.88318 34.22709 643.83166 31.37941 C646.77785 28.53173 648.25094 24.786 648.25094 20.14449 C648.25094 17.17997 647.72631 14.51328 646.67246 12.14213 C645.61862 9.77326 644.08596 7.76408 642.07907 6.11687 C640.06988 4.46966 637.60022 3.20963 634.67006 2.33906 C631.73991 1.46849 628.41571 1.03091 624.69518 1.03091 C602.02372 1.03091 602.0237 1.03089 602.02372 1.03091 C602.02372 24.32627 602.0237 70.91697 602.02372 70.91699 C608.72405 70.91699 622.12468 70.91697 622.12471 70.91699 zM607.10968 66.91696 C607.10968 57.35139 607.10966 38.22023 607.10968 38.22025 C612.14753 38.22025 622.2232 38.22023 622.22322 38.22025 C625.44891 38.22025 628.20723 38.63263 630.49592 39.45508 C632.7846 40.27754 634.6609 41.36575 636.12712 42.71514 C637.59105 44.06681 638.6701 45.59718 639.36197 47.31082 C640.05385 49.02218 640.39749 50.78394 640.39749 52.5938 C640.39749 57.30175 638.90836 60.8665 635.92781 63.28577 C632.94725 65.70732 628.34698 66.91696 622.12471 66.91696 C607.10968 66.91696 607.10966 66.91693 607.10968 66.91696 zM624.64477 5.07906 C630.76854 5.07906 635.40318 6.40553 638.54639 9.0539 C641.69189 11.70455 643.26579 15.43425 643.26579 20.243 C643.26579 22.4492 642.84425 24.43089 642.00575 26.19494 C641.16497 27.9567 639.95534 29.45499 638.37457 30.68983 C636.79609 31.92466 634.85105 32.87083 632.54633 33.52834 C630.24162 34.18585 627.62533 34.51804 624.69289 34.51804 C607.10968 34.51804 607.10966 34.51802 607.10968 34.51804 C607.10968 24.70505 607.10966 5.07904 607.10968 5.07906 C612.95471 5.07906 624.64475 5.07904 624.64477 5.07906 z" />
<glyph unicode="" horiz-adv-x="83.018049785371389" d="M65.06558 51.74103 C59.77181 46.43978 51.8461 38.48417 41.27351 27.84428 C37.66208 26.76758 32.26363 25.10019 25.10807 22.82716 C26.37917 26.64047 28.21853 32.32305 30.63363 39.88986 C35.77786 45.04904 43.50916 52.77287 53.81258 63.07628 C56.28749 60.53407 60.03351 56.75067 65.06558 51.74103 zM62.55328 71.30855 C63.55521 72.31048 64.52723 73.31988 65.46934 74.31433 C66.87503 75.85461 68.13866 77.18553 69.28265 78.32952 C70.88275 80.13898 70.88267 80.1389 70.88275 80.13898 C70.95752 80.13898 71.02481 80.16889 71.08463 80.24366 C71.2267 80.24366 71.31642 80.27357 71.38371 80.34834 C71.5183 80.34834 71.6828 80.37824 71.89216 80.44554 C72.08656 80.44554 72.35573 80.47545 72.68473 80.55022 C72.87913 80.55022 73.12587 80.55022 73.39505 80.55022 C73.45486 80.55022 73.55207 80.55022 73.69413 80.55022 C74.02312 80.55022 74.39698 80.51283 74.79326 80.44554 C75.12225 80.37824 75.49611 80.25113 75.89239 80.04178 C76.30363 79.90719 76.72235 79.70531 77.20088 79.43613 C77.73175 79.15948 78.23272 78.8604 78.70377 78.52393 C79.15988 78.18746 79.63841 77.7837 80.10947 77.31264 C80.84222 76.57241 81.41048 75.83966 81.81424 75.1069 C82.27782 74.36667 82.61429 73.66383 82.81617 72.99837 C82.96571 72.33291 83.01805 71.72726 83.01805 71.18891 C83.01805 70.65056 82.94328 70.18698 82.81617 69.78322 C82.4797 69.31217 82.27782 69.01308 82.218 68.8785 C82.218 68.77382 82.21793 68.77374 82.218 68.77382 C81.47777 68.03359 80.64782 67.16624 79.7057 66.16432 C78.77107 65.16239 77.79905 64.12307 76.79712 63.05385 C75.39143 61.58087 74.15023 60.24247 73.08101 59.03866 C71.38371 57.34136 71.38364 57.34129 71.38371 57.34136 C70.64348 58.08159 69.76866 58.94893 68.77421 59.95086 C67.76481 60.95279 66.77036 61.96967 65.76095 62.97908 C64.28796 64.44459 62.98695 65.7456 61.85044 66.88959 C60.14566 68.60184 60.14559 68.60177 60.14566 68.60184 C60.81112 69.40189 61.60369 70.29914 62.55328 71.30855 zM71.65289 45.48271 C71.65281 45.48264 71.65289 45.48271 71.65289 5.80933 C71.65289 0.59033 67.42834 -3.61927 62.23177 -3.61927 C62.23169 -3.61934 62.23177 -3.61927 9.42115 -3.61927 C4.21711 -3.61927 0.00003 0.5978 0.00003 5.80933 C-0.00004 5.80925 0.00003 5.80933 0.00003 58.61247 C0.00003 63.82399 4.21711 68.03359 9.42115 68.03359 C9.42108 68.03351 34.30488 68.03359 46.74674 68.03359 C46.74666 68.03351 41.1788 63.49251 38.39484 61.22197 C38.39476 61.22189 38.39484 61.22197 11.26799 61.22197 C9.65294 61.22197 6.81165 58.3732 6.81165 56.75815 C6.81158 56.75807 6.81165 56.75815 6.81165 7.64869 C6.81165 6.03364 9.65294 3.19235 11.26799 3.19235 C11.26792 3.19228 11.26799 3.19235 60.39241 3.19235 C61.9925 3.19235 64.83379 6.03364 64.83379 7.64869 C64.83372 7.64861 64.83379 27.30344 64.83379 37.13081 C64.83372 37.13074 69.37986 42.69875 71.65289 45.48271 z" />
<glyph unicode="" horiz-adv-x="79.856156274699956" d="M76.72029 46.6626 C76.72029 28.19999 52.69375 9.94867 39.23164 0.65196 C25.76953 9.94867 1.81342 28.19999 1.81342 46.6626 C1.81342 48.09131 1.81337 48.09126 1.81342 48.09131 C1.81342 63.60594 10.27 71.11675 22.03677 71.11675 C30.0758 71.11675 34.30157 67.87196 39.23164 62.0263 C44.23214 67.87196 48.38749 71.11675 56.42149 71.11675 C68.26372 71.11675 76.71526 63.8122 76.71526 47.88505 C76.71526 46.6626 76.71521 46.66255 76.71526 46.6626 C76.71694 46.6626 76.72024 46.66255 76.72029 46.6626 zM68.20166 50.54125 C68.20166 55.68261 64.26263 62.23759 58.75907 62.87649 C57.91391 63.01735 56.99833 63.01735 56.15317 63.01735 C50.7301 63.01735 48.61218 60.7636 45.22653 56.81451 C38.96333 49.41438 38.96328 49.41433 38.96333 49.41438 C36.87224 51.87941 32.69001 56.80943 32.69007 56.80948 C29.30945 60.75857 27.26196 63.01232 21.76845 63.01232 C20.9233 63.01232 20.07814 63.01232 19.16256 62.87146 C13.52316 62.23759 10.00168 55.75304 9.71996 50.54125 C9.6445 49.34395 9.71996 48.14665 9.71996 47.01977 C9.71996 45.39989 10.3488 43.21658 10.91224 41.73253 C15.07261 29.54318 28.95227 17.9877 38.9583 10.65296 C49.03476 17.9877 62.84398 29.53815 67.07479 41.73253 C67.57282 43.28198 68.20166 45.32443 68.20166 47.01977 C68.27712 48.14665 68.20166 49.34395 68.20166 50.54125 z" />
<glyph unicode="" horiz-adv-x="82.738199922303295" d="M76.7697 8.14982 C77.75601 7.15328 77.75601 5.52305 76.76459 4.53162 C72.8551 0.62724 72.85505 0.62719 72.8551 0.62724 C71.86878 -0.36418 70.23855 -0.36418 69.24201 0.62724 C52.94481 17.15953 52.94476 17.15948 52.94481 17.15953 C51.95849 18.15607 50.10851 18.45758 48.85134 17.83922 C48.85134 17.83922 40.68485 13.8173 34.52677 13.8173 C18.35221 13.8173 5.25415 26.91537 5.25415 43.09503 C5.25415 59.2747 18.35221 72.37276 34.53188 72.37276 C50.71154 72.37276 63.80961 59.2747 63.80961 43.09503 C63.80961 36.93695 59.7928 28.84711 59.7928 28.84711 C59.16933 27.58994 59.47084 25.74507 60.46227 24.74854 C76.7697 8.14982 76.76965 8.14977 76.7697 8.14982 zM34.46967 62.00973 C23.96998 62.00973 15.4908 53.52558 15.4908 43.02589 C15.4908 32.5957 23.96998 24.11156 34.46967 24.11156 C44.90482 24.11156 53.38897 32.5957 53.38897 43.02589 C53.38401 53.52558 44.89986 62.00973 34.46967 62.00973 z" />
<glyph unicode="" horiz-adv-x="79.85615627469997" d="M4.11284 18.70399 C3.17927 31.05046 14.22479 40.14996 18.20034 45.63452 C22.15491 51.10913 34.09205 65.66832 30.30532 79.76011 C30.30007 79.76011 48.75124 66.7722 53.58694 53.4561 C58.82124 39.05603 56.64989 31.21952 56.64989 31.21952 C56.64989 31.21952 65.50834 32.63168 64.60099 48.28978 C64.60099 48.28978 78.51017 35.7643 75.62554 23.08965 C72.71468 10.40008 59.54502 -3.37845 41.85434 -3.84586 C41.85434 -3.84586 48.39459 7.77962 49.80544 11.80727 C50.87538 14.94485 53.86491 21.82666 44.02568 32.31842 C30.74063 46.47485 32.27211 42.81019 32.27211 42.81019 C32.27211 42.81019 33.13226 40.7914 31.19693 34.82451 C28.84202 27.53995 20.53952 19.67361 20.18287 13.53766 C19.81574 7.35697 22.25456 2.65307 31.19693 -4 C31.19693 -4.00497 5.72823 -2.82651 4.11284 18.70399 z" />
<glyph unicode="" horiz-adv-x="89.408801048499583" d="M48.08883 -3.63021 C38.26166 -3.44348 29.48784 0.196 22.39628 6.26706 C22.22186 6.3806 21.65073 6.77218 21.06148 7.40761 C20.38091 8.14631 19.63879 9.25163 19.63297 10.67261 C19.6299 11.59736 19.96984 12.60624 20.753 13.5946 C21.75367 14.88562 23.03854 15.38459 24.16951 15.37159 C26.26832 15.34594 27.82062 13.96224 27.89039 13.92359 C33.17794 9.30567 40.7223 5.95756 48.17706 5.82007 C48.40597 5.8203 48.86378 5.82076 48.86378 5.82076 C65.58244 5.81905 79.31721 19.20978 79.63664 35.86893 C79.63219 35.98692 79.63219 36.09259 79.63219 36.18356 C79.63219 36.37953 79.63732 36.53684 79.63664 36.63636 C79.63664 53.3646 66.23189 67.098 49.33881 67.41264 C49.22356 67.41264 49.12917 67.41674 49.02212 67.41674 C48.9698 67.41674 48.91235 67.41537 48.84668 67.41298 C48.83471 67.41241 48.81077 67.41126 48.81077 67.41127 C48.80314 67.41172 48.78786 67.41263 48.78786 67.41264 C35.63687 67.41127 24.35726 59.08101 19.99138 47.35407 C23.24419 47.35407 29.7498 47.35407 29.7498 47.35407 C25.00545 39.14351 15.51674 22.72238 15.51675 22.72239 C10.40715 30.93295 0.18794 47.35407 0.18795 47.35407 C3.47279 47.35407 10.04247 47.35407 10.04247 47.35407 C14.75889 64.43183 30.38078 76.85882 48.81761 76.86874 C49.03341 76.86874 49.32581 76.86874 49.58983 76.8595 C71.55808 76.44022 89.09205 58.51433 89.09274 36.63636 C89.09274 36.37702 89.09273 35.85832 89.09274 35.85833 C88.68029 13.89247 70.7503 -3.64116 48.86481 -3.64184 C48.5642 -3.64184 48.3378 -3.63021 48.08883 -3.63021 zM68.86214 47.26161 C68.86419 45.07799 67.6272 42.98602 65.52018 41.99834 C65.52018 41.99834 55.54425 36.86298 50.55629 34.2953 C50.55628 34.29529 50.55629 34.2953 46.52214 23.00817 C45.66305 20.64739 43.43565 19.17682 41.05812 19.17682 C41.05744 19.17682 41.05675 19.17682 41.05607 19.17682 C40.39739 19.17682 39.72674 19.29002 39.07354 19.52634 C36.70729 20.38474 35.23706 22.61351 35.2374 24.98967 C35.2374 25.64972 35.35129 26.32139 35.5876 26.97049 C35.5876 26.97049 35.5876 26.97049 40.31463 40.18578 C40.36148 40.30821 40.40286 40.37422 40.4121 40.39234 C40.41244 40.39303 40.41278 40.39371 40.41312 40.39405 C40.61353 40.88413 40.88199 41.30376 41.16345 41.67755 C41.69833 42.4573 42.40284 43.21105 43.40214 43.68266 C43.40214 43.68265 54.84431 49.56949 60.56539 52.51291 C60.56539 52.51291 60.56539 52.51291 60.58215 52.52078 C61.37865 52.89321 62.222 53.0707 63.04928 53.0707 C65.23599 53.07139 67.3324 51.83303 68.31563 49.72225 C68.31563 49.72225 68.86248 48.08684 68.86214 47.26161 z" />
<glyph unicode="" horiz-adv-x="79.856156274699998" d="M42.00742 59.04854 C43.66121 66.18444 49.76741 71.50116 57.10129 71.50116 C65.70456 71.50116 72.67759 64.20758 72.67759 55.21073 C72.67759 48.53601 68.82828 42.81232 63.33175 40.29731 C72.77503 37.40462 79.73047 27.67143 79.73047 16.07573 C63.8109 16.07262 63.8109 16.07262 63.8109 16.07262 C61.01198 20.45045 57.91775 24.03305 53.6191 26.47733 C56.65164 29.95461 58.5155 34.56116 58.5155 39.63544 C58.5158 49.66061 51.29694 57.91178 42.00742 59.04854 zM16.55309 39.05959 C10.67753 41.57803 6.53561 47.60148 6.53561 54.64765 C6.53561 63.95704 13.75149 71.50428 22.65631 71.50428 C30.07303 71.50428 36.25313 66.23711 38.1319 59.10432 C28.59386 58.21342 21.11486 49.84322 21.11486 39.63513 C21.11486 34.40348 23.09405 29.66076 26.29495 26.1492 C22.24182 23.71427 19.36334 20.24323 16.69195 16.05735 C16.69195 16.05735 5.63313 16.05527 0.10371 16.05423 C0.10371 27.83814 7.04426 35.87273 16.55309 39.05959 zM62.12371 0.40884 C62.1237 0.40883 62.12371 0.40884 18.25436 0.40884 C18.25436 12.65752 25.74566 22.87998 35.72301 25.2705 C30.11001 27.12846 26.00352 32.65787 26.00352 39.27279 C26.00352 47.40791 32.1634 54.00121 39.76085 54.00121 C47.35541 54.00121 53.51817 47.40791 53.51817 39.27279 C53.51817 32.78044 49.56052 27.33068 44.10789 25.37486 C54.3457 23.23225 62.12371 12.87795 62.12371 0.40884 z" />
<glyph unicode="" horiz-adv-x="82.027030736692623" d="M81.04139 35.84862 C81.04139 46.07812 76.54174 56.96866 69.3146 64.20821 C62.09622 71.43898 51.22072 75.95513 41.00363 75.95513 C30.78653 75.95513 19.91103 71.43898 12.69265 64.20821 C5.46551 56.96866 0.96586 46.07812 0.96586 35.84862 C0.96586 25.61913 5.46551 14.72859 12.69265 7.48904 C19.91103 0.25827 30.78653 -4.25788 41.00363 -4.25788 C51.22072 -4.25788 62.09622 0.25827 69.3146 7.48904 C76.54174 14.72859 81.04139 25.61913 81.04139 35.84862 z" />
<glyph unicode="" horiz-adv-x="75.651423081876899" d="M75.65142 35.82571 C75.65142 14.93486 58.71617 -2 37.82571 -2 C16.93525 -2 -0 14.93525 -0 35.82571 C-0 56.71617 16.93525 73.65142 37.82571 73.65142 C58.71617 73.65142 75.65142 56.71656 75.65142 35.82571 zM30.64624 9.5361 C30.64624 8.84693 31.21026 8.28254 31.89943 8.28254 C44.15844 8.28254 44.15844 8.28254 44.15844 8.28254 C44.84797 8.28254 45.41163 8.84693 45.41163 9.5361 C45.41163 38.80932 45.41163 38.80931 45.41163 38.80932 C45.41163 39.49848 44.84797 40.06251 44.15844 40.06251 C31.89943 40.06251 31.89942 40.0625 31.89943 40.06251 C31.21026 40.06251 30.64624 39.49848 30.64624 38.80932 C30.64624 9.5361 30.64623 9.53609 30.64624 9.5361 zM29.55815 54.55612 C29.55815 49.75788 33.44797 45.86733 38.24621 45.86733 C43.04445 45.86733 46.93463 49.75824 46.93463 54.55612 C46.93463 59.35363 43.04445 63.24418 38.24621 63.24418 C33.4476 63.24454 29.55815 59.35436 29.55815 54.55612 z" />
<glyph unicode="" horiz-adv-x="83.072522982599992" d="M79.72636 52.82744 C79.72631 52.82739 79.72636 52.82744 79.72636 11.36587 C79.72636 7.92031 76.93337 5.12732 73.48781 5.12732 C73.48776 5.12727 73.48781 5.12732 9.39518 5.12732 C5.93918 5.12732 3.15662 7.92031 3.15662 11.36587 C3.15657 11.36582 3.15662 39.13221 3.15662 53.01538 C3.15657 53.01533 28.32313 33.83162 40.90639 24.23974 C40.90634 24.23969 66.78637 43.29821 79.72636 52.82744 zM4.31037 61.98428 C5.42756 63.64441 7.23909 64.80337 9.39518 64.80337 C9.39512 64.80332 9.39518 64.80337 73.49303 64.80337 C75.73265 64.80337 77.6016 63.56088 78.70314 61.79112 C78.70308 61.79107 53.56447 43.28255 40.99514 34.02826 C40.99509 34.02821 40.99514 34.02826 4.31037 61.98428 z" />
<glyph unicode="" horiz-adv-x="107.63137470453562" d="M107.63137 61.05039 C107.6313 61.05032 107.63137 61.05039 107.63137 2.76934 C107.63137 -2.07396 103.70537 -5.99997 98.86207 -5.99997 C98.86199 -6.00004 98.86207 -5.99997 8.76934 -5.99997 C3.91136 -5.99997 0.00003 -2.07396 0.00003 2.76934 C-0.00004 2.76927 0.00003 41.79949 0.00003 61.31457 C-0.00004 61.3145 35.37569 34.34864 53.06352 20.86567 C53.06345 20.8656 89.44209 47.65548 107.63137 61.05039 zM1.6218 74.0158 C3.19221 76.34939 5.73861 77.9785 8.76934 77.9785 C8.76927 77.97843 8.76934 77.9785 98.8694 77.9785 C102.01755 77.9785 104.64467 76.23198 106.19306 73.74428 C106.19299 73.74421 70.85654 47.72744 53.18828 34.71902 C53.1882 34.71895 53.18828 34.71902 1.6218 74.0158 z" />
<glyph unicode="" horiz-adv-x="80.017842588035464" d="M2.72524 10.00113 C2.72524 10.21913 2.72524 10.80856 2.72524 11.32128 C2.72524 11.32128 2.72524 54.61321 2.72524 62.51041 C2.72524 62.50986 2.65515 71.98992 13.14133 71.98992 C47.10718 71.98992 47.10718 71.98991 47.10718 71.98992 C47.62045 71.98992 48.03659 71.57323 48.03659 71.06051 C48.03659 64.50996 48.03658 64.50996 48.03659 64.50996 C48.03659 63.99669 47.62045 63.58 47.10718 63.58 C47.10718 63.58 18.10902 63.58 14.07129 63.58 C13.2186 63.58 12.7125 63.27866 12.7125 63.27866 C12.2765 63.01596 11.32778 61.86248 11.25768 61.43309 C11.19366 61.00371 11.13571 60.49706 11.13571 60.31107 C11.13571 60.11901 11.13571 59.54834 11.13571 59.03562 C11.13571 59.03562 11.13571 35.71656 11.13571 30.43483 C11.13571 25.15366 11.13571 18.82718 11.13571 11.46864 C11.13571 10.61595 11.38573 9.92993 11.91776 9.41059 C12.50719 8.82723 13.15458 8.70581 13.15458 8.70581 C13.66067 8.60977 14.22472 8.53306 14.41071 8.53306 C14.60333 8.53306 15.17344 8.53306 15.68672 8.53306 C47.10774 8.53306 47.10773 8.53305 47.10774 8.53306 C47.62101 8.53306 48.03714 8.11637 48.03714 7.6031 C48.03714 1.05255 48.03714 1.05254 48.03714 1.05255 C48.03714 0.53983 47.62101 0.12314 47.10774 0.12314 C47.10774 0.12314 20.09036 0.12314 12.21248 0.12314 C12.21193 0.12314 2.72524 -0.26154 2.72524 10.00113 zM55.13963 56.60614 C62.22884 50.39298 76.40726 37.96667 76.40726 37.96667 C77.11204 37.3513 77.45809 36.63327 77.45809 35.80045 C77.45809 34.96762 77.11204 34.24904 76.40726 33.63367 C55.13963 14.9942 55.13962 14.9942 55.13963 14.9942 C54.44699 14.37883 53.85093 14.18622 53.37077 14.40477 C52.88951 14.62277 52.65275 15.18682 52.65275 16.1096 C52.65275 25.95558 52.65274 25.95557 52.65275 25.95558 C47.18301 25.95558 36.24352 25.95557 36.24352 25.95558 C35.32019 25.95558 34.54476 26.27568 33.91007 26.90375 C33.27538 27.54506 32.96135 28.31442 32.96135 29.23775 C32.96135 42.36369 32.96134 42.36369 32.96135 42.36369 C32.96135 43.28648 33.27538 44.05638 33.91007 44.69715 C34.54476 45.32521 35.32019 45.64587 36.24352 45.64587 C52.65275 45.64587 52.65274 45.64586 52.65275 45.64587 C52.65275 48.92749 52.65274 55.49073 52.65275 55.49074 C52.65275 56.41352 52.88951 56.97757 53.37077 57.19557 C53.85093 57.41413 54.44699 57.22206 55.13963 56.60614 z" />
<glyph unicode="" horiz-adv-x="89.672220062586348" d="M88.75526 1.41716 C89.97934 0.18039 89.97934 -1.84283 88.74892 -3.07325 C83.897 -7.91883 83.89693 -7.91889 83.897 -7.91883 C82.67292 -9.14925 80.6497 -9.14925 79.41294 -7.91883 C59.18709 12.59877 59.18702 12.59871 59.18709 12.59877 C57.96301 13.83554 55.66707 14.20974 54.10684 13.44231 C54.10684 13.44231 43.97172 8.45086 36.32915 8.45086 C16.25552 8.45086 0 24.70637 0 44.78635 C0 64.86632 16.25552 81.12184 36.33549 81.12184 C56.41547 81.12184 72.67099 64.86632 72.67099 44.78635 C72.67099 37.14378 67.68588 27.10379 67.68588 27.10379 C66.91211 25.54357 67.28631 23.25397 68.51673 22.01721 C88.75526 1.41716 88.7552 1.41709 88.75526 1.41716 zM36.33549 69.03961 C22.92136 69.03961 12.08858 58.20048 12.08858 44.78635 C12.08858 31.46101 22.92136 20.62188 36.33549 20.62188 C49.66717 20.62188 60.5063 31.46101 60.5063 44.78635 C60.49996 58.20048 49.66083 69.03961 36.33549 69.03961 z" />
<glyph unicode="" horiz-adv-x="94.273050917510034" d="M10.41144 -4 C4.65981 -3.99025 0.00002 0.66954 0.00002 6.42116 C0.00002 22.6297 -0.00003 55.04672 0.00002 55.04676 C0.00002 60.78864 4.65981 65.44843 10.41144 65.45818 C15.72275 65.45818 26.34534 65.45813 26.34539 65.45818 C26.6086 71.27317 31.40487 75.90859 37.28322 75.90859 C43.91221 75.90859 57.17015 75.90854 57.1702 75.90859 C63.04855 75.90859 67.83995 71.27317 68.10803 65.45818 C73.35436 65.45818 83.84696 65.45813 83.84701 65.45818 C83.84701 64.37122 83.84696 62.19725 83.84701 62.1973 C83.84701 61.11359 83.84696 58.94612 83.84701 58.94617 C76.43327 58.94617 61.60572 58.94612 61.60577 58.94617 C61.60577 60.02988 61.60572 62.19725 61.60577 62.1973 C61.60577 63.12016 61.60572 64.96583 61.60577 64.96588 C61.60577 67.40301 59.61707 69.39171 57.1702 69.39171 C50.54121 69.39171 37.28317 69.39166 37.28322 69.39171 C34.83147 69.39171 32.84765 67.40301 32.84765 64.96588 C32.84765 62.95931 32.8476 58.94612 32.84765 58.94617 C25.36891 58.94617 10.41139 58.94612 10.41144 58.94617 C8.26189 58.94617 6.5169 57.20119 6.5169 55.05164 C6.5169 38.84311 6.51686 6.42599 6.5169 6.42604 C6.5169 4.27162 8.26189 2.52176 10.41144 2.52176 C34.89159 2.52176 83.85184 2.52171 83.85189 2.52176 C86.00143 2.52176 87.75129 4.26674 87.75129 6.42604 C87.75129 22.63295 87.75124 55.04672 87.75129 55.04676 C87.75129 57.19631 86.01606 58.9413 83.85189 58.9413 C83.85189 60.02663 83.85184 62.19725 83.85189 62.1973 C83.85189 63.28426 83.85184 65.45813 83.85189 65.45818 C89.60839 65.45818 94.2633 60.78864 94.27305 55.04676 C94.27305 38.83823 94.273 6.42112 94.27305 6.42116 C94.2633 0.66954 89.60839 -3.99025 83.85189 -4 C59.37174 -4 10.41139 -4.00005 10.41144 -4 zM25.85796 31.78193 C25.86771 43.77261 35.56748 53.49188 47.56791 53.49188 C59.56833 53.49188 69.26811 43.77261 69.27785 31.78193 C69.26811 19.801 59.55858 10.08173 47.56791 10.07198 C35.56748 10.08173 25.86771 19.801 25.85796 31.78193 zM32.37972 31.78193 C32.38947 23.39821 39.18418 16.60349 47.56791 16.59374 C55.96626 16.60349 62.74635 23.39821 62.7561 31.78193 C62.74635 40.17053 55.96138 46.97012 47.56791 46.98474 C39.18418 46.97012 32.38947 40.16565 32.37972 31.78193 z" />
<glyph unicode="" horiz-adv-x="83.298871687969992" d="M83.29887 37.17365 C83.29887 14.13225 64.63583 -4.55279 41.64944 -4.55279 C18.65204 -4.55279 -0 14.13225 -0 37.17365 C-0 60.20955 18.65204 78.88909 41.64944 78.88909 C64.63583 78.88909 83.29887 60.20955 83.29887 37.17365 zM49.85061 12.69182 C50.9177 11.61923 52.32032 11.08568 53.73393 11.08568 C55.14205 11.08568 56.55017 11.62473 57.62825 12.69182 C59.77893 14.84249 59.77893 18.32428 57.62825 20.47496 C45.46125 32.62546 45.4612 32.62541 45.46125 32.62546 C45.46492 42.68762 45.4722 62.8119 45.47225 62.81195 C45.47225 65.8537 43.00805 68.31791 39.9663 68.31791 C36.92455 68.31791 34.47134 65.8537 34.47134 62.81195 C34.46034 62.81195 34.46029 62.8119 34.46034 62.81195 C34.46034 51.23166 34.46029 28.07103 34.46034 28.07109 C39.59043 22.94466 49.85056 12.69176 49.85061 12.69182 z" />
<glyph unicode="" horiz-adv-x="83.628165590002851" d="M41.81408 -5.85856 C18.73106 -5.85856 0 12.8725 0 35.95553 C0 59.03855 18.73106 77.76746 41.81408 77.76746 C64.89496 77.76746 83.62817 59.0364 83.62817 35.95553 C83.62817 12.8725 64.89496 -5.85856 41.81408 -5.85856 zM58.03406 15.76164 C51.30348 22.49365 37.8423 35.95765 37.84232 35.95767 C44.5729 42.68897 58.03404 56.15154 58.03406 56.15156 C55.06616 59.12018 49.13034 65.05738 49.13037 65.05741 C39.38749 55.3575 19.90173 35.95765 19.90175 35.95767 C29.64462 26.25562 49.13034 6.85148 49.13037 6.8515 C52.09826 9.82155 58.03404 15.76162 58.03406 15.76164 z" />
<glyph unicode="" horiz-adv-x="83.904847029842784" d="M83.90485 36.04758 C83.90485 12.88085 65.11021 -5.90931 41.95242 -5.90931 C18.79463 -5.90931 0 12.87862 0 36.04758 C0 59.20983 18.79463 78 41.95242 78 C65.11021 78 83.90485 59.20983 83.90485 36.04758 zM34.61053 65.25439 C31.63104 62.27715 25.67206 56.32262 25.67208 56.32265 C32.42671 49.5628 45.93596 36.04309 45.93598 36.04311 C39.18135 29.29071 25.67206 15.78588 25.67208 15.7859 C28.65156 12.8027 34.6105 6.83627 34.61053 6.83629 C44.38707 16.5719 63.94013 36.04309 63.94016 36.04311 C54.16361 45.78021 34.6105 65.25437 34.61053 65.25439 z" />
<glyph unicode="" horiz-adv-x="84.282800817160336" d="M42.13916 78.09485 C65.409 78.09485 84.2828 59.21657 84.2828 35.9557 C84.2828 12.69258 65.41124 -6.18795 42.13916 -6.18795 C18.8738 -6.18795 0 12.69258 0 35.9557 C0 59.21881 18.8738 78.09485 42.13916 78.09485 zM12.80234 28.58112 C15.79284 25.58763 21.77382 19.60062 21.77384 19.60064 C28.56378 26.38534 42.14362 39.95472 42.14364 39.95474 C48.9261 33.17004 62.49099 19.60062 62.49102 19.60064 C65.4875 22.59414 71.48044 28.5811 71.48046 28.58112 C61.70152 38.40193 42.14362 58.04352 42.14364 58.04354 C32.36321 48.22273 12.80231 28.5811 12.80234 28.58112 z" />
<glyph unicode="" horiz-adv-x="83.813058650219688" d="M41.90653 -6 C18.76638 -6 0 12.77084 0 35.90207 C0 59.0333 18.76638 77.8086 41.90653 77.8086 C65.04668 77.8086 83.81306 59.03553 83.81306 35.90207 C83.81306 12.76861 65.04668 -6 41.90653 -6 zM71.08207 43.23554 C68.10675 46.21235 62.15609 52.16595 62.15611 52.16597 C55.40551 45.41983 41.90428 31.92752 41.9043 31.92754 C35.15816 38.67368 21.66585 52.16595 21.66587 52.16597 C18.68757 49.18916 12.73096 43.23552 12.73098 43.23554 C22.45542 33.46947 41.90428 13.93731 41.9043 13.93733 C51.63022 23.7034 71.08205 43.23552 71.08207 43.23554 z" />
<glyph unicode="" horiz-adv-x="73.596977923760974" d="M35.36047 65.28931 C35.83981 65.08016 36.07948 64.53915 36.07948 63.66312 C36.07948 47.28041 36.07947 47.2804 36.07948 47.28041 C41.33187 46.98861 46.03244 46.11321 50.17993 44.65421 C54.32806 43.19458 57.80867 41.2874 60.6224 38.93266 C63.43613 36.57729 65.79151 33.76355 67.68788 30.49146 C69.5849 27.21873 70.99176 23.73876 71.90912 20.04899 C72.82584 16.35986 73.38909 12.3268 73.59698 7.94981 C72.09666 11.1596 70.00194 13.98351 67.31281 16.42216 C64.62367 18.86081 61.5601 20.78834 58.12081 22.20665 C54.68216 23.62369 51.12844 24.70824 47.45965 25.45777 C43.7915 26.20856 39.99811 26.62433 36.07948 26.70888 C36.07948 8.51243 36.07947 8.51242 36.07948 8.51243 C36.07948 7.63703 35.83981 7.09539 35.36047 6.88687 C34.88177 6.67772 34.30834 6.84492 33.64083 7.38719 C1.00064 34.0865 1.00063 34.0865 1.00064 34.0865 C0.33376 34.62814 -0 35.29566 -0 36.08778 C-0 36.87926 0.33376 37.54677 1.00064 38.08841 C33.64083 64.789 33.64082 64.78899 33.64083 64.789 C34.30834 65.33 34.88177 65.4972 35.36047 65.28931 z" />
<glyph unicode="" horiz-adv-x="72.861080962084969" d="M-0 35.98586 C0.00578 56.10461 16.3089 72.41351 36.43343 72.41351 C56.55218 72.41351 72.86108 56.10461 72.86108 35.98586 C72.86108 15.85556 56.55218 -0.44179 36.43343 -0.44757 C16.3089 -0.44179 0.00578 15.85556 -0 35.98586 zM6.67734 35.98586 C6.71203 19.54977 19.99734 6.25868 36.43343 6.23556 C52.86374 6.25868 66.15483 19.54977 66.18374 35.98586 C66.15483 52.40461 52.85796 65.70727 36.43343 65.73617 C20.00312 65.70727 6.70625 52.40461 6.67734 35.98586 zM29.97578 13.91884 C29.97572 13.91878 48.43338 33.58279 57.66218 43.41477 C59.47749 45.33993 59.38499 48.36352 57.44827 50.17305 C55.54046 51.98836 52.49952 51.89586 50.68999 49.97071 C50.68993 49.97065 36.75333 35.10904 29.78499 27.67821 C29.78494 27.67815 23.1327 34.32665 19.80656 37.65086 C17.92187 39.52977 14.88672 39.52977 13.01937 37.65086 C11.14625 35.78352 11.14625 32.74258 13.01937 30.88102 C13.01931 30.88096 24.32364 19.5729 29.97578 13.91884 z" />
<glyph unicode="" horiz-adv-x="47.285034944900616" d="M47.28503 11.04289 L22.24482 36.08106 L47.28503 61.12943 L36.24418 72.17436 L-0 36.08106 L36.24418 0 L47.28503 11.04289 z" />
<glyph unicode="" horiz-adv-x="47.239809398893769" d="M0 61.073 L25.0183 36.05674 L-0 11.03233 L11.03233 0 L47.23981 36.05674 L11.03233 72.10533 L-0 61.073 z" />
<glyph unicode="" horiz-adv-x="93.81365236048849" d="M93.81365 0.3703 C93.81365 -4.13106 90.05665 -7.8822 85.56115 -7.8822 C8.25253 -7.8822 8.25247 -7.88226 8.25253 -7.8822 C3.75703 -7.8822 0.00003 -4.1252 0.00003 0.3703 C0.00003 77.67892 -0.00003 77.67886 0.00003 77.67892 C0.00003 82.18615 3.75703 85.93729 8.25253 85.93729 C85.56115 85.93729 85.56109 85.93723 85.56115 85.93729 C90.06251 85.93729 93.81365 82.18615 93.81365 77.67892 C93.81365 0.3703 93.81359 0.37024 93.81365 0.3703 zM78.14679 73.74022 C74.11431 75.1469 64.74233 75.1469 64.74233 75.1469 C59.01598 75.1469 55.63996 72.89622 53.19 69.70775 C50.8514 66.61306 50.75176 61.73072 50.75176 58.54225 C50.75176 57.97958 50.7517 57.97952 50.75176 57.97958 C50.75176 56.85424 50.7517 54.6035 50.75176 54.60356 C50.75176 53.47822 50.7517 51.22747 50.75176 51.22753 C48.28226 51.22753 43.3432 51.22747 43.34326 51.22753 C43.34326 47.63074 43.3432 40.43709 43.34326 40.43715 C45.81276 40.43715 50.7517 40.43709 50.75176 40.43715 C50.75176 27.92945 50.7517 2.91398 50.75176 2.91404 C55.41528 2.91404 64.74227 2.91398 64.74233 2.91404 C64.74233 15.42175 64.74227 40.43709 64.74233 40.43715 C68.4329 40.43715 75.81399 40.43709 75.81405 40.43715 C76.09343 44.03394 76.65214 51.22747 76.65219 51.22753 C72.68419 51.22753 64.74813 51.22747 64.74819 51.22753 C64.74819 52.35288 64.74813 54.6035 64.74819 54.60356 C64.74819 55.91646 64.74813 58.54219 64.74819 58.54225 C64.74819 58.91737 64.74813 59.66754 64.74819 59.66759 C64.74819 62.57473 67.36813 63.60629 70.27526 63.60629 C70.27526 63.60629 73.18239 63.60629 76.28294 62.66851 C78.14679 73.74022 78.14673 73.74017 78.14679 73.74022 z" />
<glyph unicode="" horiz-adv-x="93.875021778571522" d="M85.51269 -7.71118 L8.38564 -7.71118 C3.9012 -7.71118 0.14782 -3.96671 0.14782 0.52664 L0.14782 77.66261 C0.14782 82.15596 3.9012 85.90043 8.38564 85.90043 L85.51269 85.90043 C89.99713 85.90043 93.7416 82.15596 93.7416 77.66261 L93.7416 0.53556 C93.7416 0.53259 93.7416 0.52961 93.7416 0.52664 C93.7416 -3.9578 89.99713 -7.71118 85.51269 -7.71118 zM39.37432 36.07276 L12.99911 7.58102 L18.93739 7.58102 L42.02213 32.52522 L60.67672 7.58102 L80.87372 7.58102 L53.19603 44.59029 L77.74606 71.11118 L71.80778 71.11118 L50.54823 48.13784 L33.36749 71.11118 L13.17049 71.11118 C21.9051 59.43171 30.63971 47.75223 39.37432 36.07276 zM21.89367 66.73245 L62.87037 11.95118 L72.15054 11.95118 L31.17384 66.73245 C28.08045 66.73245 24.98706 66.73245 21.89367 66.73245 z" />
<glyph unicode="" horiz-adv-x="93.924661245446401" d="M93.92466 77.82192 C93.9246 77.82186 93.92466 77.82192 93.92466 0.41997 C93.92466 -4.08568 90.16603 -7.84431 85.65449 -7.84431 C85.65443 -7.84437 85.65449 -7.84431 8.26431 -7.84431 C3.76454 -7.84431 0.00003 -4.09156 0.00003 0.41997 C-0.00003 0.41992 0.00003 0.41997 0.00003 77.82192 C0.00003 82.32757 3.76454 86.08621 8.26431 86.08621 C8.26425 86.08615 59.86169 86.08621 85.66038 86.08621 C90.16603 86.08621 93.93054 82.32757 93.92466 77.82192 zM63.44974 46.91761 C63.44968 46.91755 63.44974 46.91761 30.00438 46.91761 C29.11619 44.77654 28.61622 42.44137 28.61622 39.98855 C28.61622 30.0067 36.74522 21.87771 46.73294 21.87771 C56.71479 21.87771 64.83791 30.0067 64.83791 39.98855 C64.83791 42.44137 64.33793 44.78242 63.44974 46.91761 zM84.45455 5.19032 C84.4545 5.19026 84.45455 33.00851 84.45455 46.91761 C84.4545 46.91755 84.45455 46.91761 74.56682 46.91761 C75.12562 44.68831 75.50207 42.38843 75.50207 39.98855 C75.50207 24.10112 62.61449 11.22531 46.73883 11.22531 C30.84552 11.22531 17.9697 24.107 17.9697 39.98855 C17.9697 42.38843 18.35203 44.68831 18.90495 46.91761 C18.90489 46.91755 12.62291 46.91761 9.4819 46.91761 C9.48184 46.91755 9.4819 46.91761 9.4819 5.19032 C9.4819 3.23748 11.08182 1.63756 13.03466 1.63756 C13.0346 1.6375 58.27157 1.63756 80.89003 1.63756 C82.84287 1.63756 84.44279 3.23748 84.45455 5.19032 zM65.88491 62.00508 C65.88491 59.26992 68.12009 57.03474 70.86113 57.03474 C70.86107 57.03468 70.86113 57.03474 79.29599 57.03474 C82.03115 57.03474 84.26633 59.2758 84.26633 62.00508 C84.26627 62.00502 84.26633 62.00508 84.26633 70.43994 C84.26633 73.1751 82.03115 75.41028 79.29599 75.41028 C79.29593 75.41022 79.29599 75.41028 70.86113 75.41028 C68.12009 75.41028 65.88491 73.1751 65.88491 70.43994 C65.88485 70.43988 65.88491 70.43994 65.88491 62.00508 z" />
<glyph unicode="" horiz-adv-x="73.467091155906814" d="M52.21283 25.14434 C54.17736 22.86021 58.10642 18.29194 58.10642 18.29195 C62.05217 23.20953 64.15382 29.32001 64.15278 35.51183 C64.15278 40.40804 62.84205 45.35117 60.07981 49.83497 C59.99431 49.98304 59.92497 50.08679 59.86032 50.19263 C54.58351 58.40685 45.72904 62.86824 36.69262 62.86928 C31.78442 62.86928 26.82982 61.55334 22.35123 58.79475 C22.25999 58.74157 22.05613 58.60289 21.77928 58.44283 C14.03795 53.46529 9.65999 45.17077 9.31588 36.55093 C9.31849 36.4967 9.32162 36.41641 9.32162 36.31214 C9.31536 35.7892 9.26687 34.69171 8.65947 33.5864 C8.07501 32.46806 6.71684 31.43991 4.75596 31.47328 C2.68715 31.44044 1.28153 32.51238 0.67518 33.66305 C0.04744 34.80068 0.00626 35.91798 0 36.38461 C0 36.51339 0.00521 36.5942 0.00678 36.61662 C0.38634 48.28076 6.3159 59.57316 16.91175 66.37707 C17.12239 66.5022 17.25951 66.58875 17.48005 66.72587 C23.46436 70.41458 30.11759 72.17942 36.69105 72.17942 C48.77855 72.18047 60.62204 66.21128 67.62772 55.30573 C67.76589 55.10083 67.91187 54.8683 68.02188 54.68843 C71.70329 48.70516 73.46709 42.05714 73.46709 35.48941 C73.46605 26.64016 70.26951 17.92803 64.26331 11.13194 C66.34393 8.71225 70.50517 3.87287 70.50518 3.87288 C61.43295 2.4716 43.28849 -0.33095 43.2885 -0.33095 C46.26328 8.16082 52.21282 25.14434 52.21283 25.14434 zM46.34583 36.48367 C46.34583 39.08449 45.19901 41.85314 43.35996 43.69219 C41.5209 45.53125 38.75225 46.67806 36.15143 46.67806 C33.55062 46.67806 30.78196 45.53125 28.94291 43.69219 C27.10385 41.85314 25.95704 39.08449 25.95704 36.48367 C25.95704 33.88285 27.10385 31.1142 28.94291 29.27515 C30.78196 27.43609 33.55062 26.28928 36.15143 26.28928 C38.75225 26.28928 41.5209 27.43609 43.35996 29.27515 C45.19901 31.1142 46.34583 33.88285 46.34583 36.48367 z" />
<glyph unicode="" horiz-adv-x="54.835156526454028" d="M27.38701 72.97781 C32.36745 72.97781 36.96312 71.69944 41.17941 69.14989 C45.38851 66.59314 48.72019 63.17156 51.16905 58.87436 C53.60893 54.56817 54.83516 49.93115 54.83516 44.95251 C54.83516 40.06198 53.34642 34.56731 50.36894 28.4883 C47.42923 23.84229 44.07238 19.04884 40.28401 14.08998 C36.49564 9.13112 33.45524 5.31039 31.1574 2.63138 C27.70885 -1.326 27.70883 -1.32602 27.70885 -1.326 C27.32948 -0.98618 26.78469 -0.46296 26.08347 0.23645 C25.37686 0.93947 24.03016 2.37247 22.0272 4.54804 C20.02783 6.71822 18.0896 8.90637 16.21968 11.1179 C14.34618 13.33303 12.25152 16.05339 9.93211 19.29157 C7.6091 22.52256 5.58097 25.67085 3.83512 28.74002 C1.27837 34.35515 -0 39.65383 -0 44.63067 C-0 48.37769 0.72459 51.98266 2.17197 55.45099 C3.61756 58.91931 5.56658 61.94533 8.01185 64.51646 C10.45892 67.09478 13.37346 69.14989 16.75728 70.67998 C20.14111 72.20827 23.68675 72.97781 27.38701 72.97781 zM37.66254 56.37695 C34.89543 59.14406 31.56914 60.53211 27.67289 60.53211 C23.78204 60.53211 20.45036 59.14406 17.68505 56.37695 C14.91614 53.61524 13.53348 50.26918 13.53348 46.35854 C13.53348 42.44072 14.91794 39.10904 17.68505 36.3689 C20.45036 33.62157 23.78204 32.2479 27.67289 32.2479 C31.56914 32.2479 34.89543 33.62157 37.66254 36.3689 C40.43324 39.10904 41.8141 42.44072 41.8141 46.35854 C41.8123 50.26918 40.43324 53.61524 37.66254 56.37695 z" />
<glyph unicode="" horiz-adv-x="81.615246139564519" d="M80.93939 36.1338 C80.93939 14.05496 63.05273 -3.85249 41.0247 -3.85249 C18.98281 -3.85249 1.11001 14.05496 1.11001 36.1338 C1.11001 58.21265 18.98281 76.11086 41.02008 76.11086 C63.05273 76.11086 80.93939 58.21265 80.93939 36.1338 zM67.26995 51.5707 C65.16346 53.56632 61.82357 53.45545 59.83026 51.34434 C59.83024 51.34432 44.48894 34.99597 36.81828 26.82179 C36.81826 26.82176 36.81828 26.82179 25.83776 37.79538 C23.77054 39.85336 20.43527 39.85336 18.37497 37.79538 C16.31468 35.72585 16.31468 32.39058 18.38421 30.33722 C18.38419 30.33719 18.37805 30.33722 18.37497 30.33722 C18.37495 30.33719 30.81834 17.89385 37.04002 11.67217 C37.03999 11.67215 57.34575 33.30832 67.49861 44.12639 C69.49192 46.2375 69.38568 49.57277 67.26995 51.5707 z" />
<glyph unicode="" horiz-adv-x="62.293694562004276" d="M31.11212 78.41043 C36.76999 78.41043 41.99075 76.95817 46.78053 74.06184 C51.56214 71.15733 55.34698 67.27036 58.12893 62.38866 C60.90068 57.49676 62.29369 52.22902 62.29369 46.5732 C62.29369 41.01746 60.60246 34.77543 57.22 27.86957 C53.88043 22.59162 50.06699 17.14618 45.76334 11.51283 C41.45968 5.87947 38.00573 1.53905 35.39535 -1.50435 C31.47774 -6 31.47772 -6.00002 31.47774 -6 C31.04676 -5.61396 30.42787 -5.01958 29.63128 -4.22502 C28.82855 -3.42639 27.29868 -1.79847 25.02328 0.67301 C22.75197 3.13837 20.5501 5.62415 18.42584 8.13649 C16.29751 10.65291 13.91794 13.74329 11.28305 17.42192 C8.64407 21.09239 6.34008 24.66889 4.35676 28.15552 C1.45225 34.53441 0 40.5538 0 46.20758 C0 50.46426 0.82315 54.55957 2.4674 58.49965 C4.10961 62.43973 6.32374 65.87734 9.1016 68.79819 C11.88151 71.7272 15.19249 74.06184 19.03657 75.80005 C22.88065 77.53622 26.90856 78.41043 31.11212 78.41043 zM42.7853 59.55156 C39.64181 62.69505 35.8631 64.2719 31.43689 64.2719 C27.01681 64.2719 23.23197 62.69505 20.09052 59.55156 C16.945 56.41421 15.37428 52.61302 15.37428 48.17047 C15.37428 43.71976 16.94704 39.93491 20.09052 36.82206 C23.23197 33.70105 27.01681 32.14054 31.43689 32.14054 C35.8631 32.14054 39.64181 33.70105 42.7853 36.82206 C45.93287 39.93491 47.50155 43.71976 47.50155 48.17047 C47.4995 52.61302 45.93287 56.41421 42.7853 59.55156 z" />
<glyph unicode="" horiz-adv-x="75.76205676353257" d="M75.76206 36.05951 C75.76206 15.13902 58.80451 -1.81853 37.88402 -1.81853 C16.96353 -1.81853 0 15.13902 0 36.05951 C0 56.98598 16.96353 73.94353 37.88402 73.94353 C58.79853 73.94353 75.76206 56.98598 75.76206 36.05951 zM44.24982 58.62375 C40.36459 58.62375 32.59406 58.62369 32.59412 58.62375 C32.59412 49.28525 32.59406 30.60817 32.59412 30.60823 C36.47936 30.60823 44.24976 30.60817 44.24982 30.60823 C44.24982 39.94674 44.24976 58.62369 44.24982 58.62375 zM44.24982 23.1426 C40.36459 23.1426 32.59406 23.14254 32.59412 23.1426 C32.59412 19.27331 32.59406 11.53466 32.59412 11.53472 C36.47936 11.53472 44.24976 11.53466 44.24982 11.53472 C44.24982 15.40402 44.24976 23.14254 44.24982 23.1426 z" />
<glyph unicode="" horiz-adv-x="74.541572736091865" d="M74.54157 35.8299 C74.54157 15.24643 57.85132 -1.43795 37.27373 -1.43795 C16.69026 -1.43795 0 15.24643 0 35.8299 C0 56.41925 16.69026 73.09774 37.27373 73.09774 C57.85132 73.09774 74.54157 56.41925 74.54157 35.8299 zM41.61978 28.14344 C41.6139 28.51983 41.60208 29.27253 41.60214 29.27259 C41.57273 31.54854 41.8315 32.4248 41.9844 32.75414 C42.17847 33.15405 42.76069 33.92446 44.42501 35.33001 C47.38315 37.78827 49.27095 39.69959 50.20015 41.17572 C51.17639 42.6989 51.6704 44.3691 51.6704 46.11575 C51.6704 49.20327 50.35893 51.93205 47.76542 54.22564 C45.21307 56.48394 41.76092 57.63074 37.51485 57.63074 C33.45696 57.63074 30.12244 56.4957 27.58773 54.25505 C25.04714 52.00851 23.64747 49.21504 23.44163 45.97461 C23.37694 44.93956 23.37688 44.9395 23.37694 44.93956 C23.72588 44.89839 24.4237 44.816 24.42376 44.81605 C26.55072 44.55533 30.80458 44.03382 30.80464 44.03388 C31.13593 43.99272 31.79846 43.91032 31.79852 43.91038 C31.87302 44.23972 32.02194 44.89833 32.022 44.89839 C32.40427 46.69797 33.11587 48.04472 34.10387 48.87982 C35.086 49.7208 36.29748 50.12071 37.8089 50.12071 C39.34972 50.12071 40.57884 49.73256 41.44335 48.96803 C42.28433 48.21527 42.68424 47.34488 42.68424 46.30983 C42.68424 45.5747 42.46076 44.91603 42.00204 44.32205 C41.80797 44.06917 41.10225 43.32816 38.54402 41.26394 C36.40334 39.52904 34.94485 37.91177 34.19797 36.45328 C33.4452 34.95951 33.06294 33.14817 33.06294 30.90751 C33.08646 29.23143 33.0864 29.23137 33.08646 29.23143 C33.09626 28.86876 33.11581 28.14338 33.11587 28.14344 C33.47657 28.14344 34.19791 28.14338 34.19797 28.14344 C36.29944 28.14344 40.50233 28.14338 40.50239 28.14344 C40.87485 28.14344 41.61972 28.14338 41.61978 28.14344 zM41.65507 22.56826 C38.80082 22.56826 33.09228 22.5682 33.09234 22.56826 C33.09234 19.71598 33.09228 14.01136 33.09234 14.01142 C35.94658 14.01142 41.65501 14.01136 41.65507 14.01142 C41.65507 16.8637 41.65501 22.5682 41.65507 22.56826 z" />
<glyph unicode="" horiz-adv-x="60.825645645227901" d="M60.49029 1.29868 C60.49029 -0.96803 59.56358 -1.99999 57.19161 -1.99999 C3.77112 -1.99999 3.77109 -2.00001 3.77112 -1.99999 C1.50184 -1.99999 0.46988 -0.96803 0.46988 1.29868 C0.46988 38.01533 0.46985 38.0153 0.46988 38.01533 C0.46988 42.24071 4.18441 41.41411 7.17504 41.41411 C7.17504 54.51638 7.17501 54.51636 7.17504 54.51638 C7.20841 54.51638 7.27513 54.51636 7.27515 54.51638 C8.51504 66.68681 18.82692 74.52404 30.68416 74.52404 C43.06252 74.52404 52.45026 64.41753 53.58233 52.45503 C53.68758 52.45503 53.68755 52.45501 53.68758 52.45503 C53.75603 48.77473 53.89292 41.41409 53.89294 41.41411 C56.881 41.41411 60.49029 42.24071 60.49029 38.01533 C60.49029 1.29868 60.49026 1.29866 60.49029 1.29868 zM30.68416 64.72558 C24.1895 64.72558 17.1763 61.73495 17.1763 54.20577 C17.1763 41.41411 17.17627 41.41409 17.1763 41.41411 C26.07972 41.41411 43.88652 41.41409 43.88655 41.41411 C43.88655 45.85256 43.88655 50.28844 43.88655 54.72175 C43.88655 62.24836 37.18652 64.72558 30.68416 64.72558 z" />
<glyph unicode="" horiz-adv-x="69.843891382681448" d="M58.10954 31.98894 C61.99308 31.98894 69.7601 31.98888 69.76016 31.98894 C68.77931 13.4903 53.45647 -0.93542 34.96381 -0.93542 C26.65049 -0.93542 18.58237 1.99518 12.22477 7.38389 C2.84687 -2 2.84681 -2.00006 2.84687 -2 C1.89791 8.05374 -0.00006 28.16116 0 28.16122 C9.79457 26.95509 29.38366 24.54277 29.38372 24.54283 C26.43518 21.5923 20.53804 15.69117 20.5381 15.69123 C24.61701 12.43169 29.74855 10.64343 34.96381 10.64343 C47.02112 10.63745 57.12869 20.00938 58.10954 31.98894 zM66.73387 73.53762 C67.77054 63.5716 69.84383 43.6395 69.84389 43.63956 C60.2108 45.00717 40.94456 47.74233 40.94462 47.74239 C43.73168 50.53144 49.30573 56.10948 49.30579 56.10954 C45.22688 59.36908 40.09535 61.16333 34.96381 61.16333 C22.90052 61.16333 12.7152 51.7914 11.73435 39.81184 C0.08373 39.81184 0.08367 39.81178 0.08373 39.81184 C1.0586 58.31048 16.38742 72.73619 34.96381 72.73619 C43.1934 72.73619 51.2675 69.8056 57.61912 64.42287 C66.73387 73.53762 66.73381 73.53756 66.73387 73.53762 z" />
<glyph unicode="" horiz-adv-x="77.622934906304565" d="M77.37132 55.09211 C77.37129 55.09208 77.37132 55.09211 0.2789 55.09211 C1.60672 62.57398 6.12374 72.71453 20.87225 72.71453 C29.2363 72.71453 33.64115 69.33738 38.77357 63.24396 C43.98481 69.33738 48.31387 72.71453 56.68399 72.71453 C71.54164 72.71453 76.05562 62.57398 77.37132 55.09211 zM0 44.78179 C-0.00003 44.78176 0 44.78179 77.62293 44.78179 C76.96812 38.72475 74.00932 32.7344 69.80759 27.08661 C69.80756 27.08658 28.46528 27.08661 7.79412 27.08661 C3.60452 32.7344 0.65178 38.72778 0 44.78179 zM16.95245 16.77933 C16.95242 16.7793 16.95245 16.77933 60.63108 16.77933 C53.26137 9.67034 44.95188 3.58904 38.77357 -0.67939 C32.60133 3.58904 24.307 9.67034 16.95245 16.77933 z" />
<glyph unicode="" horiz-adv-x="80.009703864632669" d="M76.51694 46.11838 C76.51694 28.06961 53.02895 10.22247 39.86859 1.13907 C26.70823 10.22247 3.28909 28.06961 3.28909 46.11838 C3.28909 47.51507 3.28904 47.51502 3.28909 47.51507 C3.28909 62.68194 11.55611 70.0244 23.05913 70.0244 C30.91797 70.0244 35.04903 66.85234 39.86859 61.13771 C44.757 66.85234 48.81921 70.0244 56.67313 70.0244 C68.24992 70.0244 76.51203 62.88358 76.51203 47.31343 C76.51694 46.11838 76.51689 46.11833 76.51694 46.11838 z" />
<glyph unicode="" horiz-adv-x="81.022373274002291" d="M2.00055 30.64814 C-0.99302 34.15316 -0.57968 39.42635 2.92326 42.422 C6.43036 45.41557 11.70355 45.00014 14.69921 41.49721 C19.42615 35.96238 28.88001 24.8927 28.88003 24.89272 C41.33862 39.87865 66.25577 69.85049 66.25579 69.85051 C69.20134 73.3952 74.46409 73.8816 78.01295 70.93396 C81.55555 67.98214 82.03986 62.72148 79.0964 59.17471 C62.41397 39.10834 29.0491 -1.02441 29.04913 -1.02439 C20.03293 9.53312 2.00053 30.64812 2.00055 30.64814 z" />
<glyph unicode="" horiz-adv-x="112.29916501887297" d="M-0 56.56356 C37.43306 56.56356 112.29915 56.56354 112.29917 56.56356 C93.54443 37.80821 56.03493 0.29749 56.03495 0.29751 C37.35663 19.05286 -0.00002 56.56354 -0 56.56356 z" />
<glyph unicode="" horiz-adv-x="73.140615159354169" d="M73.14062 10.79577 C69.38632 7.04071 61.87771 -0.46941 61.87773 -0.46939 C53.44192 7.96718 36.57028 24.84029 36.57031 24.84031 C28.1345 16.40374 11.26286 -0.46941 11.26288 -0.46939 C7.50859 3.28566 -0.00002 10.79574 -0 10.79577 C8.43581 19.23157 25.3074 36.10317 25.30742 36.10319 C16.87162 44.539 -0.00002 61.41059 -0 61.41062 C3.75429 65.16491 11.26286 72.67348 11.26288 72.6735 C19.69869 64.23769 36.57028 47.36605 36.57031 47.36607 C45.00612 55.80188 61.87771 72.67348 61.87773 72.6735 C65.63203 68.9192 73.14059 61.41059 73.14062 61.41062 C64.70556 52.97481 47.83544 36.10317 47.83546 36.10319 C56.27051 27.66738 73.14059 10.79574 73.14062 10.79577 z" />
<glyph unicode="" horiz-adv-x="83.072522982599992" d="M78.24414 42.68362 C71.47125 37.75799 57.92546 27.90674 57.92547 27.90674 C60.51145 19.9517 65.68342 4.04161 65.68342 4.04161 C65.90517 3.30281 66.05293 2.56402 66.05293 1.82522 C66.05293 0.86467 65.75742 0.05187 64.72287 0.05187 C63.76232 0.05187 62.654 0.71691 61.91521 1.30795 C41.59654 16.01129 41.59653 16.01129 41.59654 16.01129 C34.82365 11.11017 21.27787 1.30794 21.27787 1.30795 C20.46531 0.71691 19.43076 0.05187 18.39644 0.05187 C17.43589 0.05187 17.06637 0.86467 17.06637 1.75122 C17.06637 2.56402 17.28813 3.30281 17.50965 4.04184 C25.26761 27.90697 25.2676 27.90697 25.26761 27.90697 C18.49487 32.83252 4.9494 42.68362 4.9494 42.68362 C4.13684 43.27466 2.80677 44.3832 2.80677 45.41752 C2.80677 46.96911 5.39268 47.11687 6.42722 47.11687 C31.54842 47.0431 31.54842 47.0431 31.54842 47.0431 C34.10982 55.02273 39.23261 70.98199 39.23261 70.982 C39.52813 71.94255 40.3407 73.93742 41.59677 73.93742 C42.85284 73.93742 43.59164 71.94255 43.88739 70.982 C51.71933 47.0431 51.71933 47.0431 51.71933 47.0431 C60.0684 47.06769 76.76654 47.11687 76.76654 47.11687 C77.80086 47.11687 80.387 46.96911 80.387 45.49151 C80.387 44.3832 78.98316 43.27466 78.24414 42.68362 z" />
<glyph unicode="" horiz-adv-x="102.28370844613062" d="M102.28371 10.95451 C102.28371 5.94869 98.22557 1.89056 93.21975 1.89056 C9.06396 1.89056 9.06395 1.89055 9.06396 1.89056 C4.05814 1.89056 0 5.94869 0 10.95451 C0 61.1653 -0 61.16529 0 61.1653 C0 66.17112 4.05814 70.22925 9.06396 70.22925 C93.21975 70.22925 93.21975 70.22925 93.21975 70.22925 C98.22557 70.22925 102.28371 66.17112 102.28371 61.1653 C102.28371 10.95451 102.2837 10.95451 102.28371 10.95451 zM39.12003 52.16932 C38.46994 52.16932 37.92409 51.99509 37.48298 51.64714 C37.04187 51.29918 36.73621 50.90742 36.56551 50.47436 C30.06363 32.36257 30.06362 32.36256 30.06363 32.36257 C29.75394 31.573 29.46339 30.7094 29.19299 29.77279 C28.92157 28.83669 28.67835 27.85728 28.46132 26.83557 C28.19796 27.85728 27.919 28.83669 27.62543 29.77279 C27.33135 30.7089 27.02922 31.57249 26.72004 32.36257 C20.17183 50.47436 20.17183 50.47436 20.17183 50.47436 C19.9548 50.96936 19.63756 51.37572 19.21961 51.69346 C18.80167 52.0107 18.25179 52.16932 17.57098 52.16932 C11.25542 52.16932 11.25541 52.16932 11.25542 52.16932 C15.77565 40.89175 24.8161 18.3366 24.8161 18.3366 C27.18448 18.3366 31.92123 18.3366 31.92124 18.3366 C36.44163 29.61417 45.48242 52.16932 45.48242 52.16932 C43.36163 52.16932 39.12003 52.16932 39.12003 52.16932 zM58.06168 52.16932 C55.42995 52.16932 50.16647 52.16932 50.16647 52.16932 C50.16647 40.89175 50.16647 18.3366 50.16647 18.3366 C52.79821 18.3366 58.06168 18.3366 58.06168 18.3366 C58.06168 29.61417 58.06168 52.16932 58.06168 52.16932 zM64.60938 52.16932 C64.60938 40.89175 64.60938 18.3366 64.60938 18.3366 C67.22551 18.3366 72.45775 18.3366 72.45776 18.3366 C72.45776 22.10603 72.45775 29.64489 72.45776 29.64489 C73.82004 29.64489 76.54459 29.64489 76.5446 29.64489 C78.88209 29.64489 80.90587 29.92738 82.61694 30.49287 C84.32701 31.05786 85.73998 31.8434 86.85484 32.85001 C87.96971 33.85611 88.79705 35.06363 89.33937 36.47257 C89.8812 37.881 90.15211 39.42893 90.15211 41.11684 C90.15211 42.67987 89.88925 44.13513 89.36304 45.48214 C88.83632 46.82914 88.01956 47.99739 86.91326 48.98838 C85.80645 49.97937 84.3975 50.75686 82.68694 51.32184 C80.97637 51.88733 78.92892 52.16983 76.5451 52.16983 C64.60938 52.16983 64.60938 52.16982 64.60938 52.16983 C64.60938 52.16966 64.60938 52.16932 64.60938 52.16932 zM72.45776 35.56667 C72.45776 39.14274 72.45775 46.29487 72.45776 46.29487 C73.82004 46.29487 76.54459 46.29487 76.5446 46.29487 C77.53508 46.29487 78.39062 46.17049 79.1107 45.92325 C79.83078 45.6755 80.42598 45.32352 80.89882 44.8668 C81.37115 44.40957 81.72313 43.86422 81.95527 43.22924 C82.18791 42.59476 82.30373 41.89029 82.30373 41.11684 C82.30373 39.36699 81.85406 38.00488 80.95673 37.0295 C80.05889 36.05462 78.58852 35.56718 76.5446 35.56718 C72.45776 35.56718 72.45775 35.56717 72.45776 35.56718 C72.45776 35.56701 72.45775 35.56667 72.45776 35.56667 z" />
<glyph unicode="" horiz-adv-x="186.39448818897637" d="M149.84655 73.07226 C169.94792 73.07226 186.39449 56.62568 186.39449 36.52432 C186.39449 16.42295 169.94792 -0.02362 149.84655 -0.02362 L36.54794 -0.02362 C16.44657 -0.02362 0 16.42295 0 36.52432 C0 56.62568 16.44657 73.07226 36.54794 73.07226 C74.31414 73.07226 112.08035 73.07226 149.84655 73.07226 zM36.54794 4.08802 L135.22737 4.08802 C122.89244 9.57021 114.21231 22.36199 114.21231 36.52432 C114.21231 51.14349 122.89244 63.47842 135.22737 68.96061 L36.54794 68.96061 C18.73082 68.96061 4.11164 54.34144 4.11164 36.52432 C4.11164 18.7072 18.73082 4.08802 36.54794 4.08802 zM173.14586 44.29075 C174.97326 46.11815 174.51641 48.85925 172.68901 51.14349 C170.86161 52.97089 168.12052 52.97089 166.29312 51.14349 L145.73491 29.21473 L136.14107 38.80856 C133.85683 40.63596 131.11573 40.63596 129.28833 38.80856 C127.46094 36.52432 127.46094 33.78322 129.28833 31.95582 L146.19176 15.0524 C155.17646 24.79852 164.16116 34.54464 173.14586 44.29075 zM48.88287 19.16405 C47.96917 19.6209 45.68492 27.38733 45.22807 28.30103 C45.22807 28.30103 28.7815 28.30103 28.7815 28.30103 C28.32465 27.38733 26.04041 19.6209 25.12671 19.16405 C24.21301 18.25035 19.18767 18.7072 18.27397 18.7072 C18.27397 18.7072 33.80684 57.99623 33.80684 57.99623 C33.80684 57.99623 41.11643 57.99623 41.11643 57.99623 L56.19246 18.7072 C54.82191 18.7072 49.79657 18.25035 48.88287 19.16405 zM37.00479 51.14349 C36.54794 47.4887 31.97945 36.98117 31.06575 33.32637 C31.06575 33.32637 43.40068 33.32637 43.40068 33.32637 C42.48698 36.98117 37.91849 47.4887 37.00479 51.14349 zM81.31916 43.37706 C81.77601 41.09281 78.57807 41.54966 77.66437 41.09281 C80.40547 34.24007 74.00958 28.30103 67.15684 28.75788 C65.32944 28.75788 63.04519 29.67158 62.58835 27.38733 C62.58835 26.01678 63.95889 26.01678 65.32944 25.55994 C70.81163 25.10309 80.40547 26.47363 80.40547 18.25035 C79.94862 9.57021 68.52739 7.28597 61.67465 9.11336 C57.10615 10.02706 52.53766 15.0524 55.73561 19.16405 C56.64931 20.07774 57.563 20.53459 58.93355 21.44829 C56.64931 22.36199 55.73561 26.01678 57.563 27.84418 C58.01985 28.75788 59.3904 29.67158 60.3041 30.12843 C57.563 31.49898 55.73561 34.24007 55.73561 37.43802 C55.73561 45.6613 66.69999 48.4024 73.09588 45.20445 C73.55273 45.6613 81.31916 45.6613 81.31916 45.6613 C81.31916 44.89989 81.31916 44.13847 81.31916 43.37706 zM68.98423 20.07774 C66.69999 20.07774 63.50204 21.44829 62.1315 19.16405 C61.2178 18.25035 61.2178 16.8798 61.67465 15.9661 C63.50204 12.76816 74.92327 12.76816 74.92327 17.33665 C74.46643 20.07774 70.81163 19.6209 68.98423 20.07774 zM67.15684 42.46336 C60.76095 42.92021 60.76095 32.86952 67.15684 33.32637 C73.55273 32.86952 74.00958 42.92021 67.15684 42.46336 zM102.33423 25.10309 C104.61847 26.47363 105.53217 23.73254 106.90272 22.36199 C95.02464 10.94076 77.20752 21.90514 82.68971 37.89486 C87.2582 50.68664 108.27327 48.4024 107.35957 33.78322 C107.35957 31.95582 107.35957 31.49898 105.98902 31.04213 C105.53217 31.49898 88.1719 31.49898 88.1719 31.49898 C88.1719 23.27569 96.39519 20.99144 102.33423 25.10309 zM88.1719 35.61062 C88.1719 35.61062 100.96368 35.61062 100.96368 35.61062 C100.04998 43.8339 88.1719 43.37706 88.1719 35.61062 z" />
<glyph unicode="" horiz-adv-x="79.935862614099989" d="M49.31431 31.32842 C49.31431 30.42106 48.57111 29.67786 47.66375 29.67786 C31.51954 29.67786 31.51954 29.67786 31.51954 29.67786 C30.6116 29.67786 29.86898 30.42106 29.86898 31.32842 C29.86898 71.80265 29.86898 71.80265 29.86898 71.80265 C29.86898 72.7103 30.6116 73.45321 31.51954 73.45321 C47.66346 73.45321 47.66346 73.45321 47.66346 73.45321 C48.57082 73.45321 49.31402 72.7103 49.31402 71.80265 C49.31402 31.32842 49.31402 31.32842 49.31402 31.32842 C49.31411 31.32842 49.3143 31.32842 49.31431 31.32842 zM39.41612 -1.22134 C33.09707 -1.22134 27.97375 3.90227 27.97375 10.22046 C27.97375 16.53979 33.09707 21.66398 39.41612 21.66398 C45.73546 21.66398 50.8582 16.54008 50.8582 10.22046 C50.8582 3.90198 45.73574 -1.22134 39.41612 -1.22134 z" />
<glyph unicode="" horiz-adv-x="88.921047527050121" d="M79.03806 44.67777 C79.03806 44.67777 79.03806 44.67777 79.03806 56.13265 C79.03806 63.566 72.42298 66.01183 66.00125 66.01183 C59.5893 66.01183 52.66244 63.05815 52.66244 55.62262 C52.66244 55.62262 52.66244 46.17715 52.66244 41.45442 C52.66244 41.45441 52.66244 41.45442 52.75668 41.45442 C55.70764 41.40499 59.27237 42.22217 59.27237 38.04802 C59.27237 38.04801 59.27237 38.04802 59.27237 1.78941 C59.27237 -0.44839 58.35661 -1.46843 56.01452 -1.46843 C56.01452 -1.46844 56.01452 -1.46843 3.25812 -1.46843 C1.0176 -1.46843 0 -0.44839 0 1.78941 C-0 1.78941 0 1.78941 0 38.04802 C0 42.22217 3.66657 41.40499 6.61998 41.45442 C6.61998 41.45441 30.72956 41.45442 42.78435 41.45442 C42.78434 41.45441 42.78435 51.10466 42.78435 55.92978 C42.78434 55.92977 42.78435 55.92978 42.8832 55.92978 C44.10639 67.9479 54.29136 75.68814 66.00125 75.68814 C78.22605 75.68814 88.61389 67.63722 88.61389 53.89213 C88.61389 53.89213 88.68342 53.89213 88.71818 53.89213 C88.71818 53.89213 88.85342 47.74922 88.92105 44.67777 C88.92104 44.67777 82.33239 44.67777 79.03806 44.67777 z" />
<glyph unicode="" horiz-adv-x="79.889795918399983" d="M76.48847 31.07104 C71.98508 30.43811 62.9783 29.17223 62.9783 29.17223 C62.54072 27.93143 62.02958 26.68981 61.44568 25.52148 C70.20761 14.05698 70.2076 14.05697 70.20761 14.05698 C67.72491 11.62287 62.75951 6.75464 62.75951 6.75465 C58.88942 9.6267 51.14923 15.3708 51.14924 15.3708 C49.98118 14.78718 48.66708 14.27576 47.42519 13.83819 C45.2343 -0.3289 45.2343 -0.3289 45.2343 -0.3289 C41.75365 -0.3289 34.79235 -0.3289 34.79236 -0.3289 C34.13508 4.4664 32.82052 14.05697 32.82053 14.05698 C31.72522 14.42208 30.70293 14.86047 29.68119 15.3708 C17.92433 6.68108 17.92433 6.68108 17.92433 6.68108 C15.46606 9.11519 10.54952 13.98341 10.54952 13.98341 C13.49469 17.87802 19.38501 25.66724 19.38501 25.66725 C18.8003 26.7631 18.36218 27.85814 17.99762 29.02647 C3.46571 31.07104 3.46571 31.07104 3.46571 31.07104 C3.46571 34.52753 3.46571 41.44051 3.46571 41.44051 C8.30959 42.12194 17.99735 43.48481 17.99735 43.48481 C18.36191 44.58012 18.87333 45.74927 19.38474 46.77101 C10.62146 58.38128 10.62145 58.38128 10.62146 58.38128 C13.08009 60.81539 17.99735 65.68361 17.99735 65.68361 C21.89187 62.78704 29.68091 56.99389 29.68092 56.99389 C30.77595 57.57833 31.94428 58.01645 33.11288 58.45458 C35.15691 72.69386 35.15691 72.69386 35.15691 72.69386 C38.63783 72.69386 45.59967 72.69386 45.59967 72.69386 C46.2812 67.94743 47.64425 58.45457 47.64425 58.45458 C48.81231 58.0892 50.0542 57.57806 51.14896 57.06718 C62.68703 65.61086 62.68703 65.61086 62.68703 65.61086 C65.16973 63.17666 70.13513 58.30826 70.13513 58.30826 C67.23856 54.51101 61.44541 46.9165 61.44541 46.91651 C62.0293 45.749 62.54045 44.57985 62.90582 43.41234 C76.48819 41.44024 76.48819 41.44023 76.48819 41.44024 C76.48819 37.98384 76.48819 31.07104 76.48819 31.07104 C76.48829 31.07104 76.48846 31.07104 76.48847 31.07104 zM40.41494 46.69772 C34.57329 46.69772 29.82641 42.09769 29.82641 36.18248 C29.82641 30.34084 34.57329 25.66725 40.41494 25.66725 C46.25659 25.66725 51.07594 30.34056 51.07594 36.18248 C51.07594 42.0244 46.25686 46.69772 40.41494 46.69772 z" />
<glyph unicode="" horiz-adv-x="79.889795918399997" d="M22.27423 37.24046 C22.27423 40.06382 21.02929 43.06937 19.03288 45.06578 C17.03646 47.06219 14.03091 48.30713 11.20756 48.30713 C8.3842 48.30713 5.37865 47.06219 3.38224 45.06578 C1.38583 43.06937 0.14089 40.06382 0.14089 37.24046 C0.14089 34.41711 1.38583 31.41156 3.38224 29.41514 C5.37865 27.41873 8.3842 26.17379 11.20756 26.17379 C14.03091 26.17379 17.03646 27.41873 19.03288 29.41514 C21.02929 31.41156 22.27423 34.41711 22.27423 37.24046 zM51.17062 37.33444 C51.17062 40.15779 49.92568 43.16334 47.92927 45.15976 C45.93285 47.15617 42.9273 48.40111 40.10395 48.40111 C37.28059 48.40111 34.27504 47.15617 32.27863 45.15976 C30.28222 43.16334 29.03728 40.15779 29.03728 37.33444 C29.03728 34.51108 30.28222 31.50553 32.27863 29.50912 C34.27504 27.5127 37.28059 26.26776 40.10395 26.26776 C42.9273 26.26776 45.93285 27.5127 47.92927 29.50912 C49.92568 31.50553 51.17062 34.51108 51.17062 37.33444 zM79.78164 37.24046 C79.78164 40.06382 78.5367 43.06937 76.54028 45.06578 C74.54387 47.06219 71.53832 48.30713 68.71497 48.30713 C65.89161 48.30713 62.88606 47.06219 60.88965 45.06578 C58.89323 43.06937 57.64829 40.06382 57.64829 37.24046 C57.64829 34.41711 58.89323 31.41156 60.88965 29.41514 C62.88606 27.41873 65.89161 26.17379 68.71497 26.17379 C71.53832 26.17379 74.54387 27.41873 76.54028 29.41514 C78.5367 31.41156 79.78164 34.41711 79.78164 37.24046 z" />
<glyph unicode="" horiz-adv-x="79.889795918399969" d="M39.97634 52.81036 C42.5885 52.81036 45.36922 53.96217 47.2163 55.80925 C49.06337 57.65632 50.21519 60.43705 50.21519 63.04921 C50.21519 65.66137 49.06337 68.4421 47.2163 70.28917 C45.36922 72.13625 42.5885 73.28806 39.97634 73.28806 C37.36418 73.28806 34.58345 72.13625 32.73637 70.28917 C30.8893 68.4421 29.73748 65.66137 29.73748 63.04921 C29.73748 60.43705 30.8893 57.65632 32.73637 55.80925 C34.58345 53.96217 37.36418 52.81036 39.97634 52.81036 zM39.97634 25.91208 C42.5885 25.91208 45.36922 27.06389 47.2163 28.91097 C49.06337 30.75804 50.21519 33.53877 50.21519 36.15093 C50.21519 38.76309 49.06337 41.54382 47.2163 43.39089 C45.36922 45.23797 42.5885 46.38978 39.97634 46.38978 C37.36418 46.38978 34.58345 45.23797 32.73637 43.39089 C30.8893 41.54382 29.73748 38.76309 29.73748 36.15093 C29.73748 33.53877 30.8893 30.75804 32.73637 28.91097 C34.58345 27.06389 37.36418 25.91208 39.97634 25.91208 zM39.97634 -0.94213 C42.5885 -0.94213 45.36922 0.20968 47.2163 2.05676 C49.06337 3.90383 50.21519 6.68456 50.21519 9.29672 C50.21519 11.90888 49.06337 14.68961 47.2163 16.53668 C45.36922 18.38376 42.5885 19.53557 39.97634 19.53557 C37.36418 19.53557 34.58345 18.38376 32.73637 16.53668 C30.8893 14.68961 29.73748 11.90888 29.73748 9.29672 C29.73748 6.68456 30.8893 3.90383 32.73637 2.05676 C34.58345 0.20968 37.36418 -0.94213 39.97634 -0.94213 zM43.76245 49.07916 C43.73896 49.07916 43.69197 49.07916 43.66848 49.07916 C43.66848 49.03218 43.66848 48.9382 43.66848 48.89122 C43.69197 48.89122 43.73896 48.89122 43.76245 48.89122 C43.76245 48.9382 43.76245 49.03218 43.76245 49.07916 z" />
<glyph unicode="" horiz-adv-x="79.859154929499994" d="M71.0619 0.53318 C71.0619 0.53317 71.0619 0.53318 8.8526 0.53318 C8.8526 16.68993 19.38574 30.18949 33.44046 33.43132 C25.55615 35.93528 19.84145 43.31199 19.84145 52.02203 C19.84145 62.79951 28.57662 71.53469 39.35005 71.53469 C50.11969 71.53469 58.85892 62.79951 58.85892 52.02203 C58.85892 43.48902 53.37045 36.23854 45.73534 33.59269 C60.14847 30.66384 71.0619 16.97428 71.0619 0.53318 z" />
<glyph unicode="" horiz-adv-x="72.988287563744422" d="M72.98829 36.22225 C72.98829 16.06722 56.65115 -0.26992 36.49611 -0.26992 C16.34107 -0.26992 -0 16.06722 -0 36.22225 C-0 56.37729 16.33714 72.71443 36.49218 72.71443 C56.64722 72.71443 72.98829 56.37729 72.98829 36.22225 zM56.63542 49.49132 C54.55019 51.57655 50.37969 55.74697 50.37973 55.74701 C45.782 51.14797 36.5865 41.94985 36.58654 41.94989 C32.0491 46.48733 22.97419 55.56217 22.97423 55.56221 C20.889 53.47567 16.7185 49.30255 16.71854 49.30259 C21.25598 44.76646 30.33082 35.69416 30.33085 35.6942 C25.79342 31.15677 16.7185 22.08185 16.71854 22.08189 C18.80508 19.99666 22.97812 15.82616 22.97816 15.8262 C27.51429 20.36233 36.5865 29.43454 36.58654 29.43458 C41.18558 24.83685 50.38362 15.64136 50.38366 15.6414 C52.46889 17.72663 56.63931 21.89705 56.63935 21.89709 C52.04031 26.49613 42.84219 35.69416 42.84223 35.6942 C47.43996 40.29324 56.63538 49.49128 56.63542 49.49132 z" />
<glyph unicode="" horiz-adv-x="80.148021672932288" d="M74.56726 61.91849 C74.56726 61.70092 74.56726 61.11472 74.56726 60.60378 C74.56726 60.60378 74.56726 17.50849 74.56726 9.64716 C74.56726 9.64771 74.63703 0.21071 64.19848 0.21071 C30.38691 0.21071 30.3869 0.2107 30.38691 0.21071 C29.87542 0.21071 29.46117 0.6255 29.46117 1.13644 C29.46117 7.65669 29.46117 7.65669 29.46117 7.65669 C29.46117 8.16818 29.87542 8.58298 30.38691 8.58298 C30.38691 8.58298 59.25335 8.58298 63.27219 8.58298 C64.12101 8.58298 64.62481 8.88295 64.62481 8.88295 C65.05883 9.14446 66.0038 10.2927 66.07357 10.72013 C66.1373 11.14756 66.19499 11.65191 66.19499 11.83706 C66.19499 12.02825 66.19499 12.59632 66.19499 13.10726 C66.19499 13.10726 66.19499 36.32041 66.19499 41.57814 C66.19499 46.83588 66.19499 53.13307 66.19499 60.45819 C66.19499 61.30701 65.94611 61.98991 65.41649 62.50689 C64.82973 63.0876 64.18529 63.20792 64.18529 63.20792 C63.68149 63.30352 63.12056 63.37988 62.93541 63.37988 C62.74312 63.37988 62.1756 63.37988 61.66466 63.37988 C30.38636 63.37988 30.38635 63.37988 30.38636 63.37988 C29.87487 63.37988 29.46062 63.79413 29.46062 64.30562 C29.46062 70.82642 29.46062 70.82641 29.46062 70.82642 C29.46062 71.33681 29.87487 71.7516 30.38636 71.7516 C30.38636 71.7516 57.28101 71.7516 65.12311 71.7516 C65.12366 71.7516 74.56726 72.13453 74.56726 61.91849 zM24.99072 56.94699 C32.04773 50.76187 46.16174 38.39163 46.16175 38.39164 C46.86333 37.77906 47.2078 37.06429 47.2078 36.23525 C47.2078 35.40676 46.86333 34.69144 46.16175 34.07887 C24.99017 15.52406 24.99016 15.52406 24.99017 15.52406 C24.30067 14.91204 23.70733 14.7203 23.22935 14.93786 C22.75082 15.15542 22.51458 15.71635 22.51458 16.63495 C22.51458 26.4362 22.51458 26.43619 22.51458 26.4362 C17.07005 26.4362 6.18099 26.43619 6.181 26.4362 C5.26185 26.4362 4.48995 26.75485 3.85759 27.38061 C3.22634 28.01791 2.91318 28.78377 2.91318 29.70291 C2.91318 42.76869 2.91317 42.76868 2.91318 42.76869 C2.91318 43.68783 3.22579 44.45369 3.85759 45.09209 C4.4894 45.7173 5.2613 46.0365 6.181 46.0365 C22.51513 46.0365 22.51513 46.0365 22.51513 46.0365 C22.51513 49.30304 22.51513 55.8361 22.51513 55.83611 C22.51513 56.7547 22.75137 57.31618 23.2299 57.53319 C23.70787 57.75131 24.30122 57.56011 24.99072 56.94699 z" />
<glyph unicode="" horiz-adv-x="80.039761469745429" d="M77.13642 62.06213 C77.13642 61.84328 77.13642 61.25359 77.13642 60.73961 C77.13642 60.73961 77.13642 17.38832 77.13642 9.4803 C77.13642 9.48085 77.20661 -0.01221 66.70605 -0.01221 C32.69363 -0.01221 32.69362 -0.01222 32.69363 -0.01221 C32.1791 -0.01221 31.76239 0.40505 31.76239 0.91902 C31.76239 7.47801 31.76239 7.478 31.76239 7.47801 C31.76239 7.99253 32.1791 8.40979 32.69363 8.40979 C32.69363 8.40979 61.73155 8.40979 65.77426 8.40979 C66.62812 8.40979 67.13491 8.71155 67.13491 8.71155 C67.57152 8.97461 68.52209 10.12967 68.59228 10.55964 C68.65639 10.98961 68.71442 11.49696 68.71442 11.6832 C68.71442 11.87553 68.71442 12.44698 68.71442 12.96096 C68.71442 12.96096 68.71442 36.31199 68.71442 41.60096 C68.71442 46.88993 68.71442 53.22453 68.71442 60.59316 C68.71442 61.44702 68.46406 62.13398 67.9313 62.65403 C67.34106 63.23819 66.69279 63.35923 66.69279 63.35923 C66.186 63.45539 65.62173 63.53221 65.43548 63.53221 C65.24205 63.53221 64.67115 63.53221 64.15718 63.53221 C32.69307 63.53221 32.69307 63.5322 32.69307 63.53221 C32.17855 63.53221 31.76184 63.94892 31.76184 64.46344 C31.76184 71.02298 31.76184 71.02297 31.76184 71.02298 C31.76184 71.5364 32.17855 71.95366 32.69307 71.95366 C32.69307 71.95366 59.74749 71.95366 67.63618 71.95366 C67.63673 71.95366 77.13642 72.33887 77.13642 62.06213 zM46.30434 40.37794 C46.30434 40.37794 46.30434 40.37794 46.30434 32.21514 C46.30434 31.51823 45.43777 30.95452 44.37003 30.95452 C44.37002 30.95451 34.82078 30.95452 30.04616 30.95452 C30.04615 30.95451 30.04616 30.95452 30.04616 16.72294 C30.04616 15.6541 29.483 14.78863 28.78554 14.78863 C28.78553 14.78862 28.78554 14.78863 20.62274 14.78863 C19.92638 14.78863 19.36212 15.6541 19.36212 16.72294 C19.36211 16.72294 19.36212 26.21066 19.36212 30.95452 C19.36211 30.95451 19.36212 30.95452 5.22339 30.95452 C4.15454 30.95452 3.28907 31.51768 3.28907 32.21514 C3.28907 32.21513 3.28907 32.21514 3.28907 40.37794 C3.28907 41.0743 4.15454 41.63856 5.22339 41.63856 C5.22338 41.63856 14.64921 41.63856 19.36212 41.63856 C19.36211 41.63856 19.36212 41.63856 19.36212 55.86959 C19.36212 56.93788 19.92638 57.8039 20.62274 57.8039 C20.62273 57.80389 20.62274 57.8039 28.78554 57.8039 C29.48245 57.8039 30.04616 56.93788 30.04616 55.86959 C30.04615 55.86958 30.04616 46.38224 30.04616 41.63856 C30.04615 41.63856 39.59541 41.63856 44.37003 41.63856 C45.43777 41.63856 46.30434 41.07374 46.30434 40.37794 z" />
<glyph unicode="" horiz-adv-x="106.56853256255415" d="M106.56853 71.1585 C106.56853 47.77375 106.56853 1.00424 106.56853 1.00425 C106.56853 -0.47369 105.37105 -1.67155 103.89311 -1.67155 C68.09797 -1.67155 68.09797 -1.67155 68.09797 -1.67155 C63.59441 -9.12307 54.58729 -24.02612 54.58729 -24.02612 C53.90991 -25.14756 52.80961 -25.14756 52.13222 -24.02612 C38.62155 -1.67155 38.62154 -1.67155 38.62155 -1.67155 C26.63951 -1.67155 2.67542 -1.67155 2.67543 -1.67155 C1.19749 -1.67155 0 -0.47369 0 1.00425 C0 71.1585 -0 71.15849 0 71.1585 C0 72.63606 1.19749 73.83392 2.67543 73.83392 C103.89348 73.83392 103.89347 73.83392 103.89348 73.83392 C105.37142 73.83392 106.56853 72.63606 106.56853 71.1585 zM36.61572 56.74933 C33.44592 56.74933 27.10631 56.74933 27.10631 56.74933 C21.93847 43.13602 11.60278 15.90939 11.60279 15.90939 C14.02175 15.90939 18.85967 15.90939 18.85968 15.90939 C19.62869 15.90939 20.27492 16.1201 20.79762 16.54078 C21.31994 16.96146 21.68238 17.43222 21.88344 17.95603 C24.24614 25.07529 24.24614 25.07528 24.24614 25.07529 C29.32235 25.07529 39.47477 25.07528 39.47477 25.07529 C40.26296 22.7022 41.83932 17.95603 41.83933 17.95603 C42.0953 17.35766 42.47072 16.86724 42.96633 16.48403 C43.46083 16.10081 44.11077 15.90902 44.91726 15.90902 C52.11961 15.90902 52.11961 15.90902 52.11961 15.90902 C46.95165 29.52246 36.61572 56.74933 36.61572 56.74933 zM26.39145 31.52161 C27.61886 35.23105 30.07368 42.64992 30.07369 42.64993 C30.34895 43.36033 30.64238 44.20058 30.95325 45.17251 C31.26598 46.14371 31.5583 47.19912 31.83356 48.33947 C32.1448 47.21841 32.45642 46.17673 32.76729 45.21443 C33.08002 44.25214 33.37457 43.41561 33.64797 42.70594 C37.35877 31.52161 37.35877 31.52161 37.35877 31.52161 C33.703 31.52161 26.39145 31.52161 26.39145 31.52161 zM92.28884 44.48585 C91.29093 46.98099 89.88385 49.13446 88.07018 50.94701 C86.25614 52.75919 84.0704 54.17963 81.51294 55.20722 C78.95771 56.23443 76.12091 56.74933 73.007 56.74933 C57.44932 56.74933 57.44931 56.74933 57.44932 56.74933 C57.44932 43.13602 57.44931 15.90939 57.44932 15.90939 C62.63521 15.90939 73.007 15.90939 73.007 15.90939 C76.12091 15.90939 78.95771 16.41873 81.51294 17.43704 C84.0704 18.45572 86.25614 19.87542 88.07018 21.69725 C89.88385 23.52019 91.29093 25.67848 92.28884 28.17325 C93.28637 30.66764 93.78644 33.39092 93.78644 36.34309 C93.78644 39.27708 93.28674 41.99146 92.28884 44.48585 zM83.50764 30.84941 C82.99385 29.22383 82.25599 27.84568 81.29296 26.71534 C80.33178 25.58426 79.15469 24.71582 77.76096 24.10891 C76.36872 23.5009 74.78357 23.19782 73.007 23.19782 C66.79513 23.19782 66.79513 23.19781 66.79513 23.19782 C66.79513 31.9523 66.79513 49.46128 66.79513 49.46128 C68.86575 49.46128 73.007 49.46128 73.007 49.46128 C74.78357 49.46128 76.36909 49.15783 77.76096 48.55018 C79.15469 47.94254 80.33178 47.0741 81.29296 45.94376 C82.25599 44.81305 82.99385 43.4349 83.50764 41.80894 C84.01883 40.18373 84.27554 38.36153 84.27554 36.34309 C84.27591 34.30647 84.01883 32.47537 83.50764 30.84941 z" />
<glyph unicode="" horiz-adv-x="82.97541395500113" d="M54.98704 17.89466 C54.98704 14.89783 52.60313 12.46888 49.66284 12.46888 C7.20367 12.46888 7.20367 12.46887 7.20367 12.46888 C4.26321 12.46888 1.87947 14.89765 1.87947 17.89466 C1.87947 54.11156 1.87947 54.11156 1.87947 54.11156 C1.87947 57.10821 4.26304 59.53734 7.20367 59.53734 C49.66301 59.53734 49.66301 59.53734 49.66301 59.53734 C52.60313 59.53734 54.98721 57.10821 54.98721 54.11156 C54.98721 17.89466 54.98721 17.89466 54.98721 17.89466 C54.98715 17.89466 54.98704 17.89466 54.98704 17.89466 zM59.66646 28.75738 L81.17469 12.48021 L81.17469 59.50411 L59.66646 43.22555 L59.66646 28.75738 z" />
<glyph unicode="" horiz-adv-x="83.072522982599949" d="M41.65043 -3.87331 C37.25007 -3.87331 33.03016 -3.13308 29.07062 -1.81719 L0.91526 -11.09517 L7.11187 16.11696 C3.72446 21.97934 1.75598 28.76392 1.75598 36.02114 C1.75598 58.05471 19.61786 75.91558 41.65043 75.91558 C63.68299 75.91558 81.54487 58.05475 81.54487 36.02114 C81.54487 13.98857 63.68299 -3.87331 41.65043 -3.87331 z" />
<glyph unicode="" horiz-adv-x="87.460168002131056" d="M77.25829 63.8466 C82.53932 63.8466 86.80976 59.56275 86.8187 54.29514 C86.8187 39.4224 86.81866 9.67688 86.8187 9.67692 C86.80976 4.39589 82.53932 0.12099 77.25829 0.11205 C54.80013 0.11205 9.88377 0.112 9.88381 0.11205 C4.60725 0.1344 0.33235 4.40931 0.33235 9.68587 C0.33235 24.55562 0.3323 54.29509 0.33235 54.29514 C0.33235 59.56275 4.60725 63.83765 9.88381 63.8466 C14.75643 63.8466 24.50162 63.84655 24.50166 63.8466 C24.74313 69.18129 29.14324 73.43383 34.53607 73.43383 C40.61752 73.43383 52.78039 73.43379 52.78043 73.43383 C58.17773 73.43383 62.56889 69.18129 62.81484 63.84213 C67.62932 63.84362 77.25825 63.84655 77.25829 63.8466 zM43.97127 52.86868 C32.96204 52.86868 24.06344 43.95219 24.0545 32.95191 C24.06344 21.96057 32.96204 13.04855 43.97127 13.03961 C54.97155 13.04855 63.87909 21.96057 63.88803 32.95191 C63.87909 43.94772 54.98049 52.86868 43.97127 52.86868 zM43.97127 20.41338 C37.04914 20.42232 31.44168 26.02978 31.43273 32.95191 C31.44168 39.87851 37.04914 45.49491 43.97127 45.50833 C50.90234 45.49491 56.5098 39.88298 56.51874 32.95191 C56.5098 26.02978 50.91128 20.42232 43.97127 20.41338 z" />
<glyph unicode="" horiz-adv-x="78.006398403395579" d="M33.81481 34.06797 C33.81481 29.82141 33.81481 21.3283 33.81481 21.32831 C31.68525 21.32831 27.42613 21.3283 27.42613 21.32831 C27.42613 31.95145 27.42613 53.19774 27.42613 53.19774 C31.10201 53.19774 38.45375 53.19774 38.45375 53.19774 C42.08732 53.19774 44.93261 52.36605 46.97915 50.70936 C49.02854 49.056 50.05253 46.74751 50.05253 43.78435 C50.05253 42.15056 49.62118 40.73579 48.75322 39.55052 C47.88575 38.35858 46.61698 37.39949 44.95456 36.66944 C46.83695 36.11593 48.18922 35.18929 49.01518 33.89333 C49.84019 32.59689 50.24912 30.98552 50.24912 29.07689 C50.24912 26.73595 50.24911 26.73594 50.24912 26.73595 C50.24912 25.84605 50.37413 24.91606 50.61271 23.94648 C50.85606 22.97737 51.26403 22.25686 51.85142 21.79163 C51.85142 21.3264 51.85141 21.32639 51.85142 21.3264 C49.65537 21.3264 45.26328 21.32639 45.26328 21.3264 C44.67781 21.79783 44.30038 22.57035 44.13767 23.65064 C43.96828 24.72425 43.88239 25.77256 43.88239 26.77746 C43.88239 29.03394 43.88238 29.03394 43.88239 29.03394 C43.88239 30.62575 43.45008 31.8635 42.58213 32.7429 C41.71561 33.62469 40.48454 34.06606 38.89512 34.06606 C33.81481 34.06606 33.81481 34.06606 33.81481 34.06606 C33.81481 34.0667 33.81481 34.06796 33.81481 34.06797 zM33.81481 38.99177 C35.32518 38.99177 38.34591 38.99177 38.34591 38.99177 C40.14098 38.99177 41.47655 39.37111 42.35309 40.13075 C43.22725 40.88705 43.66242 42.01362 43.66242 43.49997 C43.66242 44.96055 43.22057 46.11909 42.34021 46.97989 C41.45937 47.84163 40.16293 48.27299 38.45375 48.27299 C33.81434 48.27299 33.81433 48.27298 33.81434 48.27299 C33.81434 45.17925 33.81433 38.99177 33.81434 38.99177 C33.81449 38.99177 33.81481 38.99177 33.81481 38.99177 zM0 36.49098 C13.00083 49.49213 39.00248 75.49441 39.00248 75.49442 C51.27835 63.21824 75.83007 38.66587 75.83008 38.66587 C75.10464 37.94027 73.65375 36.48907 73.65376 36.48907 C74.3792 37.21467 75.83007 38.66587 75.83008 38.66587 C76.55552 37.94027 78.00639 36.48907 78.0064 36.48907 C65.00525 23.4884 39.00296 -2.51294 39.00296 -2.51293 C26.00197 10.48837 -0 36.49098 0 36.49098 zM8.70529 36.49098 C18.80451 26.39144 39.00296 6.19235 39.00296 6.19235 C49.10266 16.29158 69.30206 36.49002 69.30207 36.49003 C59.20221 46.58973 39.00248 66.78913 39.00248 66.78913 C28.90342 56.68975 8.70528 36.49098 8.70529 36.49098 z" />
<glyph unicode="" horiz-adv-x="80.065372829400019" d="M0.6284 60.31361 C2.21626 63.39633 6.9079 64.14341 11.10743 61.98245 C11.10743 61.98245 22.95724 55.53201 28.88215 52.30679 C28.88214 52.30679 28.88215 52.30679 61.08736 70.97314 C61.83407 71.40751 63.07036 71.43039 63.83378 71.02507 C63.83378 71.02507 63.83378 71.02507 68.27047 68.66908 C69.03243 68.26231 69.1581 67.43061 68.55085 66.81646 C68.55085 66.81646 53.03503 51.19338 45.27712 43.38184 C45.27712 43.38184 45.27712 43.38184 63.97252 33.20681 C64.29648 33.38077 64.63679 33.53149 64.85216 33.64626 C64.85215 33.64626 64.85216 33.64626 73.38668 38.16794 C73.84502 38.40945 74.59682 38.41345 75.05625 38.17665 C75.05625 38.17665 75.05625 38.17665 79.61824 35.82901 C80.0773 35.59149 80.15757 35.09501 79.79366 34.72529 C79.79365 34.72529 79.79366 34.72529 70.85672 25.63509 C70.49281 25.26573 70.11873 24.54662 70.02575 24.03634 C70.02575 24.03634 70.02575 24.03634 67.69191 11.43376 C67.59676 10.92276 67.14132 10.69795 66.67935 10.93184 C66.67934 10.93184 66.67935 10.93184 62.14859 13.22137 C61.68553 13.4549 61.24753 14.06614 61.17453 14.5786 C61.17452 14.57859 61.17453 14.5786 59.84127 23.89869 C59.81694 24.06431 59.79297 24.27895 59.77735 24.50994 C59.77735 24.50993 46.92369 30.72261 40.49686 33.82894 C40.49685 33.82894 40.49686 33.82894 35.00911 1.67566 C34.8642 0.82363 34.1124 0.44301 33.3399 0.82871 C33.3399 0.82871 33.3399 0.82871 28.84292 3.0703 C28.07006 3.45564 27.37165 4.47547 27.2903 5.33441 C27.2903 5.3344 24.98092 29.70205 23.82623 41.88588 C23.82622 41.88587 11.51323 47.83826 5.35673 50.81446 C1.15757 52.97651 -0.95909 57.22834 0.6284 60.31361 z" />
<glyph unicode="" horiz-adv-x="80.065372829400005" d="M78.73095 36.331 C78.73095 16.6513 61.86414 0.69612 41.05674 0.69612 C37.0034 0.69612 33.10181 1.30317 29.44263 2.42348 C29.44262 2.42347 16.40644 -6.41463 9.88834 -10.83368 C9.88833 -10.83369 9.88834 -10.83368 10.47115 15.52361 C6.00994 21.37809 3.38148 28.56367 3.38148 36.331 C3.38148 56.01071 20.24935 71.96694 41.0578 71.96694 C61.86414 71.96694 78.72989 56.01071 78.73095 36.331 zM41.18743 15.30123 C47.46558 15.30545 52.40422 17.98028 55.68189 20.53286 C58.97852 23.10124 60.73961 25.60217 60.86819 25.77923 C61.92632 27.28738 61.56272 29.36991 60.05351 30.42804 C58.54958 31.48511 56.47232 31.12362 55.41208 29.61969 C55.41207 29.61969 55.41208 29.61969 55.40576 29.61336 C55.29194 29.45106 53.81224 27.47392 51.34609 25.61798 C48.81354 23.7104 45.3683 21.9725 41.18743 21.97566 C37.15621 21.96407 33.62455 23.76521 31.04774 25.70335 C29.76829 26.66452 28.7481 27.63833 28.06833 28.35499 C27.72686 28.71332 27.47181 29.00631 27.30846 29.20129 C27.2273 29.29825 27.16934 29.37097 27.13456 29.41312 C27.1177 29.43315 27.10716 29.44895 27.10189 29.45422 C25.98685 30.91811 23.89694 31.20372 22.43095 30.08973 C20.9618 28.97575 20.67513 26.88268 21.79017 25.41352 C21.79016 25.41351 21.79017 25.41423 21.79017 25.41458 C21.91559 25.25544 23.74939 22.84409 27.03865 20.36739 C30.31632 17.90967 35.15167 15.31177 41.18743 15.30123 zM28.57631 52.56441 C24.7738 52.56441 21.6911 49.48067 21.6911 45.67921 C21.6911 41.87564 24.7738 38.79294 28.57631 38.79294 C32.37988 38.79294 35.46152 41.87564 35.46152 45.67921 C35.46152 49.48172 32.37988 52.56547 28.57631 52.56441 zM53.90183 52.56441 C50.09826 52.56441 47.01662 49.48067 47.01662 45.67921 C47.01662 41.87564 50.09826 38.79294 53.90183 38.79294 C57.70329 38.79294 60.78704 41.87564 60.78704 45.67921 C60.78704 49.48172 57.70329 52.56547 53.90183 52.56441 z" />
<glyph unicode="" horiz-adv-x="80.06537282939999" d="M40.12226 37.83328 C40.12226 37.83328 54.97022 55.14956 62.3942 63.8077 C62.3942 63.8077 32.71013 63.8077 17.8681 63.8077 C17.86809 63.8077 32.70421 46.49142 40.12226 37.83328 zM70.66695 70.92255 C72.06039 70.92255 73.35195 70.11433 73.91413 68.84254 C74.49583 67.57451 74.28808 66.09922 73.394 65.05771 C73.394 65.05771 53.93931 42.04454 44.21196 30.53796 C44.21196 30.53796 44.21196 17.48434 44.21196 10.95753 C44.21196 10.95753 44.21196 10.95753 62.51084 5.63084 C63.65497 5.29919 64.38486 4.17332 64.21715 3.00842 C64.0507 1.84201 63.02997 0.9727 61.84353 0.9727 C61.84353 0.9727 61.84353 0.9727 18.39774 0.9727 C17.21305 0.9727 16.21334 1.84201 16.02612 3.00842 C15.87994 4.17358 16.60757 5.29944 17.73318 5.63084 C17.73318 5.63084 29.9311 9.18197 36.03006 10.95753 C36.03006 10.95753 36.03006 24.01115 36.03006 30.53796 C36.03006 30.53796 36.03006 30.53796 6.85002 65.05771 C5.95494 66.09922 5.74568 67.57476 6.32864 68.84254 C6.91084 70.11433 8.18013 70.92255 9.57482 70.92255 C9.57481 70.92255 9.57482 70.92255 70.66695 70.92255 z" />
<glyph unicode="" horiz-adv-x="80.065372829400019" d="M20.09573 -0.1183 C13.62403 -0.11406 10.86539 2.64432 10.86327 9.11708 C10.86327 11.59961 10.86326 11.59961 10.86327 11.59961 C10.86327 28.32916 10.86326 61.78824 10.86327 61.78824 C10.86539 68.261 14.61721 72.01282 21.0897 72.0168 C22.57986 72.0168 22.57986 72.0168 22.57986 72.0168 C34.5637 72.0168 58.53139 72.0168 58.53139 72.0168 C65.00415 72.01282 68.7549 68.261 68.75729 61.78824 C68.75729 60.29941 68.75729 60.29941 68.75729 60.29941 C68.75729 44.06614 68.75729 11.59961 68.75729 11.59961 C68.75791 10.7721 68.75915 9.11707 68.75915 9.11708 C68.7549 2.64432 65.50061 -0.11406 59.02758 -0.1183 C57.04176 -0.1183 57.04176 -0.11831 57.04176 -0.1183 C45.55455 -0.1183 22.58012 -0.11831 22.58012 -0.1183 C21.75199 -0.1183 20.09573 -0.11831 20.09573 -0.1183 zM18.44522 61.51586 C18.44592 44.47127 18.44734 10.3821 18.44734 10.38211 C18.4492 8.77328 19.75325 7.46789 21.36235 7.4663 C33.66124 7.4663 58.259 7.4663 58.25901 7.4663 C59.86837 7.46816 61.17269 8.77354 61.17428 10.38211 C61.1749 10.38211 61.17614 10.3821 61.17614 10.38211 C61.17552 27.42669 61.17428 61.51585 61.17428 61.51586 C61.17242 63.12495 59.8681 64.42901 58.25901 64.43193 C45.96012 64.43193 21.36235 64.43193 21.36235 64.43193 C19.75325 64.42901 18.4492 63.12495 18.44522 61.51586 zM52.58695 51.12164 C52.58695 51.12164 35.41971 51.12164 26.83609 51.12164 C26.83609 51.12164 26.83609 54.29505 26.83609 55.88176 C26.83609 55.88176 44.00333 55.88176 52.58695 55.88176 C52.58695 55.88176 52.58695 52.70835 52.58695 51.12164 zM52.58695 41.42272 C52.58695 41.42272 35.41971 41.42272 26.83609 41.42272 C26.83609 41.42272 26.83609 44.59472 26.83609 46.18072 C26.83609 46.18072 44.00333 46.18072 52.58695 46.18072 C52.58695 46.18072 52.58695 43.00872 52.58695 41.42272 zM52.58695 31.72275 C52.58695 31.72274 35.41971 31.72275 26.83609 31.72275 C26.83609 31.72274 26.83609 34.89545 26.83609 36.48181 C26.83609 36.4818 44.00333 36.48181 52.58695 36.48181 C52.58695 36.4818 52.58695 33.3091 52.58695 31.72275 zM44.4743 22.02967 C44.4743 22.02967 32.71549 22.02967 26.83609 22.02967 C26.83609 22.02967 26.83609 25.20185 26.83609 26.78794 C26.83609 26.78793 38.5949 26.78794 44.4743 26.78794 C44.4743 26.78793 44.4743 23.61576 44.4743 22.02967 z" />
<glyph unicode="" horiz-adv-x="75.585508369053059" d="M37.7831 -0.99723 C17.07329 -0.99723 0.3082 15.60349 0.3082 36.02566 C0.3082 56.44784 17.07329 73.04856 37.7831 73.04856 C58.49291 73.04856 75.258 56.48893 75.258 36.02566 C75.258 15.60349 58.49291 -0.99723 37.7831 -0.99723 zM37.45437 11.37113 C43.98783 11.37113 49.0831 14.16531 52.49364 16.79513 C55.90419 19.46603 57.75328 22.05476 57.87655 22.26021 C58.986 23.82167 58.61618 25.99949 57.01364 27.06785 C55.45219 28.1773 53.31546 27.80749 52.206 26.24603 C51.09655 24.68458 50.56237 24.02712 47.97364 22.09585 C45.34383 20.12349 41.76892 18.31549 37.41328 18.31549 C33.22201 18.31549 29.56492 20.16458 26.89401 22.17803 C25.57911 23.16421 24.51074 24.19149 23.8122 24.93112 C23.44238 25.30094 23.19583 25.58858 23.03147 25.79403 C22.86711 25.99949 22.86711 25.95839 22.86711 25.99949 C22.86711 26.04058 22.86711 25.99949 22.86711 26.04058 C21.71656 27.56094 19.53874 27.84858 18.01838 26.69803 C16.49802 25.54749 16.21038 23.36967 17.36093 21.84931 C18.51147 20.32894 19.37438 19.1784 22.82602 16.63076 C22.81232 16.63076 22.79862 16.63076 22.78492 16.63076 C26.19547 14.08313 31.20856 11.37113 37.45437 11.37113 zM23.31911 53.24275 C18.96347 53.24275 15.47075 49.70893 15.47075 45.39439 C15.47075 41.03875 19.00456 37.54603 23.31911 37.54603 C27.67474 37.54603 31.16747 41.07984 31.16747 45.39439 C31.16747 49.75002 27.63365 53.24275 23.31911 53.24275 zM55.41109 48.9693 L45.05619 48.9693 C42.71401 48.9693 40.78274 47.07911 40.78274 44.69584 C40.78274 42.35366 42.67292 40.42239 45.05619 40.42239 L55.41109 40.42239 C57.75328 40.42239 59.68455 42.31257 59.68455 44.69584 C59.68455 47.03802 57.79437 48.9693 55.41109 48.9693 z" />
</font>
</svg>
